<?xml version="1.0" encoding="utf-8"?>
<svg xmlns="http://www.w3.org/2000/svg" xmlns:xlink="http://www.w3.org/1999/xlink" width="600" height="400" viewBox="0 0 2400 1600">
<defs>
  <clipPath id="clip640">
    <rect x="0" y="0" width="2400" height="1600"/>
  </clipPath>
</defs>
<defs>
  <clipPath id="clip641">
    <rect x="480" y="0" width="1681" height="1600"/>
  </clipPath>
</defs>
<defs>
  <clipPath id="clip642">
    <rect x="147" y="47" width="1966" height="1440"/>
  </clipPath>
</defs>
<path clip-path="url(#clip642)" d="M203.099 1445.72 L203.099 1445.72 L264.9 1445.72 L326.701 1445.72 L388.503 1445.72 L450.304 1445.72 L512.105 1445.72 L573.906 1445.72 L635.707 1445.72 L697.509 1445.72 L759.31 1445.72 L821.111 1445.72 L882.912 1445.72 L944.713 1445.72 L1006.51 1445.72 L1068.32 1445.72 L1130.12 1445.72 L1191.92 1445.72 L1253.72 1445.72 L1315.52 1445.72 L1377.32 1445.72 L1439.12 1445.72 L1500.92 1445.72 L1562.73 1445.72 L1624.53 1445.72 L1686.33 1445.72 L1748.13 1445.72 L1809.93 1445.72 L1871.73 1445.72 L1933.53 1445.72 L1995.33 1445.72 L2057.13 1445.72 L2057.13 1445.72 L2057.13 1445.72 L2057.13 1445.72 L2057.13 1400.46 L2057.13 1355.2 L2057.13 1309.94 L2057.13 1264.68 L2057.13 1219.43 L2057.13 1174.17 L2057.13 1128.91 L2057.13 1083.65 L2057.13 1038.39 L2057.13 993.136 L2057.13 947.878 L2057.13 902.62 L2057.13 857.362 L2057.13 812.104 L2057.13 766.846 L2057.13 721.588 L2057.13 676.33 L2057.13 631.072 L2057.13 585.814 L2057.13 540.556 L2057.13 495.298 L2057.13 450.04 L2057.13 404.782 L2057.13 359.524 L2057.13 314.266 L2057.13 269.008 L2057.13 223.75 L2057.13 178.492 L2057.13 133.234 L2057.13 87.9763 L2057.13 87.9763 L2057.13 87.9763 L2057.13 87.9763 L1995.33 87.9763 L1933.53 87.9763 L1871.73 87.9763 L1809.93 87.9763 L1748.13 87.9763 L1686.33 87.9763 L1624.53 87.9763 L1562.73 87.9763 L1500.92 87.9763 L1439.12 87.9763 L1377.32 87.9763 L1315.52 87.9763 L1253.72 87.9763 L1191.92 87.9763 L1130.12 87.9763 L1068.32 87.9763 L1006.51 87.9763 L944.713 87.9763 L882.912 87.9763 L821.111 87.9763 L759.31 87.9763 L697.509 87.9763 L635.707 87.9763 L573.906 87.9763 L512.105 87.9763 L450.304 87.9763 L388.503 87.9763 L326.701 87.9763 L264.9 87.9763 L203.099 87.9763 L203.099 87.9763 L203.099 87.9763 L203.099 87.9763 L203.099 133.234 L203.099 178.492 L203.099 223.75 L203.099 269.008 L203.099 314.266 L203.099 359.524 L203.099 404.782 L203.099 450.04 L203.099 495.298 L203.099 540.556 L203.099 585.814 L203.099 631.072 L203.099 676.33 L203.099 721.588 L203.099 766.846 L203.099 812.104 L203.099 857.362 L203.099 902.62 L203.099 947.878 L203.099 993.136 L203.099 1038.39 L203.099 1083.65 L203.099 1128.91 L203.099 1174.17 L203.099 1219.43 L203.099 1264.68 L203.099 1309.94 L203.099 1355.2 L203.099 1400.46 L203.099 1445.72 L203.099 1445.72 L203.099 1445.72  Z" fill="#000003" fill-rule="evenodd" fill-opacity="1"/>
<path clip-path="url(#clip642)" d="M203.099 1445.72 L203.099 1445.72 L264.9 1445.72 L326.701 1445.72 L388.503 1445.72 L450.304 1445.72 L512.105 1445.72 L573.906 1445.72 L635.707 1445.72 L635.707 1445.72 L660.552 1445.72 L697.509 1423.85 L741.735 1400.46 L759.31 1392.05 L821.111 1365.77 L849.486 1355.2 L882.912 1343.82 L944.713 1325.62 L1006.51 1310.3 L1008.22 1309.94 L1068.32 1298.43 L1130.12 1288.99 L1191.92 1281.85 L1253.72 1276.9 L1315.52 1274.03 L1377.32 1273.16 L1439.12 1274.2 L1500.92 1277.06 L1562.73 1281.67 L1624.53 1287.96 L1686.33 1295.84 L1748.13 1305.27 L1774.42 1309.94 L1809.93 1316.5 L1871.73 1329.46 L1933.53 1343.83 L1978.02 1355.2 L1995.33 1359.8 L2057.13 1377.73 L2057.13 1400.46 L2057.13 1355.2 L2057.13 1309.94 L2057.13 1264.68 L2057.13 1219.43 L2057.13 1174.17 L2057.13 1128.91 L2057.13 1083.65 L2057.13 1038.39 L2057.13 993.136 L2057.13 947.878 L2057.13 902.62 L2057.13 857.362 L2057.13 812.104 L2057.13 766.846 L2057.13 721.588 L2057.13 676.33 L2057.13 631.072 L2057.13 585.814 L2057.13 540.556 L2057.13 495.298 L2057.13 450.04 L2057.13 404.782 L2057.13 359.524 L2057.13 314.266 L2057.13 269.008 L2057.13 223.75 L2057.13 178.492 L2057.13 133.234 L2057.13 87.9763 L2057.13 87.9763 L2057.13 87.9763 L2057.13 87.9763 L1995.33 87.9763 L1933.53 87.9763 L1871.73 87.9763 L1809.93 87.9763 L1748.13 87.9763 L1686.33 87.9763 L1624.53 87.9763 L1562.73 87.9763 L1500.92 87.9763 L1439.12 87.9763 L1377.32 87.9763 L1315.52 87.9763 L1253.72 87.9763 L1191.92 87.9763 L1130.12 87.9763 L1068.32 87.9763 L1006.51 87.9763 L944.713 87.9763 L882.912 87.9763 L821.111 87.9763 L759.31 87.9763 L697.509 87.9763 L635.707 87.9763 L573.906 87.9763 L512.105 87.9763 L450.304 87.9763 L388.503 87.9763 L326.701 87.9763 L264.9 87.9763 L203.099 87.9763 L203.099 87.9763 L203.099 87.9763 L203.099 87.9763 L203.099 133.234 L203.099 178.492 L203.099 223.75 L203.099 269.008 L203.099 314.266 L203.099 359.524 L203.099 404.782 L203.099 450.04 L203.099 495.298 L203.099 540.556 L203.099 585.814 L203.099 631.072 L203.099 676.33 L203.099 721.588 L203.099 766.846 L203.099 812.104 L203.099 857.362 L203.099 902.62 L203.099 947.878 L203.099 993.136 L203.099 1038.39 L203.099 1083.65 L203.099 1128.91 L203.099 1174.17 L203.099 1219.43 L203.099 1264.68 L203.099 1309.94 L203.099 1355.2 L203.099 1400.46 L203.099 1445.72 L203.099 1445.72 L203.099 1445.72  Z" fill="#0b0726" fill-rule="evenodd" fill-opacity="1"/>
<path clip-path="url(#clip642)" d="M203.099 1445.72 L203.099 1445.72 L264.9 1445.72 L326.701 1445.72 L326.701 1445.72 L329.945 1445.72 L378.628 1400.46 L388.503 1392.27 L436.944 1355.2 L450.304 1345.98 L507.325 1309.94 L512.105 1307.19 L573.906 1274.7 L595.008 1264.68 L635.707 1246.92 L697.509 1222.84 L707.341 1219.43 L759.31 1202.69 L821.111 1185.3 L866.988 1174.17 L882.912 1170.56 L944.713 1158.62 L1006.51 1148.78 L1068.32 1140.95 L1130.12 1135.06 L1191.92 1131.02 L1249.94 1128.91 L1253.72 1128.78 L1315.52 1128.27 L1352.47 1128.91 L1377.32 1129.35 L1439.12 1132.06 L1500.92 1136.29 L1562.73 1141.99 L1624.53 1149.11 L1686.33 1157.6 L1748.13 1167.41 L1785.67 1174.17 L1809.93 1178.68 L1871.73 1191.55 L1933.53 1205.64 L1989.27 1219.43 L1995.33 1220.98 L2057.13 1238.14 L2057.13 1264.68 L2057.13 1219.43 L2057.13 1174.17 L2057.13 1128.91 L2057.13 1083.65 L2057.13 1038.39 L2057.13 993.136 L2057.13 947.878 L2057.13 902.62 L2057.13 857.362 L2057.13 812.104 L2057.13 766.846 L2057.13 721.588 L2057.13 676.33 L2057.13 631.072 L2057.13 585.814 L2057.13 540.556 L2057.13 495.298 L2057.13 450.04 L2057.13 404.782 L2057.13 359.524 L2057.13 314.266 L2057.13 269.008 L2057.13 223.75 L2057.13 178.492 L2057.13 133.234 L2057.13 87.9763 L2057.13 87.9763 L2057.13 87.9763 L2057.13 87.9763 L1995.33 87.9763 L1933.53 87.9763 L1871.73 87.9763 L1809.93 87.9763 L1748.13 87.9763 L1686.33 87.9763 L1624.53 87.9763 L1562.73 87.9763 L1500.92 87.9763 L1439.12 87.9763 L1377.32 87.9763 L1315.52 87.9763 L1253.72 87.9763 L1191.92 87.9763 L1130.12 87.9763 L1068.32 87.9763 L1006.51 87.9763 L944.713 87.9763 L882.912 87.9763 L821.111 87.9763 L759.31 87.9763 L697.509 87.9763 L635.707 87.9763 L573.906 87.9763 L512.105 87.9763 L450.304 87.9763 L388.503 87.9763 L326.701 87.9763 L264.9 87.9763 L203.099 87.9763 L203.099 87.9763 L203.099 87.9763 L203.099 87.9763 L203.099 133.234 L203.099 178.492 L203.099 223.75 L203.099 269.008 L203.099 314.266 L203.099 359.524 L203.099 404.782 L203.099 450.04 L203.099 495.298 L203.099 540.556 L203.099 585.814 L203.099 631.072 L203.099 676.33 L203.099 721.588 L203.099 766.846 L203.099 812.104 L203.099 857.362 L203.099 902.62 L203.099 947.878 L203.099 993.136 L203.099 1038.39 L203.099 1083.65 L203.099 1128.91 L203.099 1174.17 L203.099 1219.43 L203.099 1264.68 L203.099 1309.94 L203.099 1355.2 L203.099 1400.46 L203.099 1445.72 L203.099 1445.72 L203.099 1445.72  Z" fill="#240b4e" fill-rule="evenodd" fill-opacity="1"/>
<path clip-path="url(#clip642)" d="M203.099 1309.94 L203.099 1308.23 L258.04 1264.68 L264.9 1259.74 L325.22 1219.43 L326.701 1218.52 L388.503 1183.47 L406.414 1174.17 L450.304 1153.08 L505.71 1128.91 L512.105 1126.31 L573.906 1103.49 L634.154 1083.65 L635.707 1083.17 L697.509 1066.1 L759.31 1051.17 L820.664 1038.39 L821.111 1038.31 L882.912 1027.91 L944.713 1019.32 L1006.51 1012.47 L1068.32 1007.29 L1130.12 1003.73 L1191.92 1001.74 L1253.72 1001.25 L1315.52 1002.23 L1377.32 1004.61 L1439.12 1008.35 L1500.92 1013.41 L1562.73 1019.75 L1624.53 1027.32 L1686.33 1036.09 L1700.58 1038.39 L1748.13 1046.32 L1809.93 1057.81 L1871.73 1070.42 L1931.43 1083.65 L1933.53 1084.13 L1995.33 1099.48 L2057.13 1115.87 L2057.13 1128.91 L2057.13 1083.65 L2057.13 1038.39 L2057.13 993.136 L2057.13 947.878 L2057.13 902.62 L2057.13 857.362 L2057.13 812.104 L2057.13 766.846 L2057.13 721.588 L2057.13 676.33 L2057.13 631.072 L2057.13 585.814 L2057.13 540.556 L2057.13 495.298 L2057.13 450.04 L2057.13 404.782 L2057.13 359.524 L2057.13 314.266 L2057.13 269.008 L2057.13 223.75 L2057.13 178.492 L2057.13 133.234 L2057.13 87.9763 L2057.13 87.9763 L2057.13 87.9763 L2057.13 87.9763 L1995.33 87.9763 L1933.53 87.9763 L1871.73 87.9763 L1809.93 87.9763 L1748.13 87.9763 L1686.33 87.9763 L1624.53 87.9763 L1562.73 87.9763 L1500.92 87.9763 L1439.12 87.9763 L1377.32 87.9763 L1315.52 87.9763 L1253.72 87.9763 L1191.92 87.9763 L1130.12 87.9763 L1068.32 87.9763 L1006.51 87.9763 L944.713 87.9763 L882.912 87.9763 L821.111 87.9763 L759.31 87.9763 L697.509 87.9763 L635.707 87.9763 L573.906 87.9763 L512.105 87.9763 L450.304 87.9763 L388.503 87.9763 L326.701 87.9763 L264.9 87.9763 L203.099 87.9763 L203.099 87.9763 L203.099 87.9763 L203.099 87.9763 L203.099 133.234 L203.099 178.492 L203.099 223.75 L203.099 269.008 L203.099 314.266 L203.099 359.524 L203.099 404.782 L203.099 450.04 L203.099 495.298 L203.099 540.556 L203.099 585.814 L203.099 631.072 L203.099 676.33 L203.099 721.588 L203.099 766.846 L203.099 812.104 L203.099 857.362 L203.099 902.62 L203.099 947.878 L203.099 993.136 L203.099 1038.39 L203.099 1083.65 L203.099 1128.91 L203.099 1174.17 L203.099 1219.43 L203.099 1264.68 L203.099 1309.94  Z" fill="#410967" fill-rule="evenodd" fill-opacity="1"/>
<path clip-path="url(#clip642)" d="M203.099 1128.91 L203.099 1112.78 L255.314 1083.65 L264.9 1078.68 L326.701 1049.02 L350.825 1038.39 L388.503 1022.87 L450.304 999.681 L469.496 993.136 L512.105 979.475 L573.906 961.673 L627.822 947.878 L635.707 945.973 L697.509 932.726 L759.31 921.256 L821.111 911.5 L882.912 903.403 L890.288 902.62 L944.713 897.136 L1006.51 892.384 L1068.32 889.068 L1130.12 887.145 L1191.92 886.571 L1253.72 887.305 L1315.52 889.309 L1377.32 892.544 L1439.12 896.974 L1500.92 902.565 L1501.43 902.62 L1562.73 909.532 L1624.53 917.631 L1686.33 926.828 L1748.13 937.089 L1807.13 947.878 L1809.93 948.404 L1871.73 961.16 L1933.53 974.918 L1995.33 989.652 L2008.96 993.136 L2057.13 1005.79 L2057.13 1038.39 L2057.13 993.136 L2057.13 947.878 L2057.13 902.62 L2057.13 857.362 L2057.13 812.104 L2057.13 766.846 L2057.13 721.588 L2057.13 676.33 L2057.13 631.072 L2057.13 585.814 L2057.13 540.556 L2057.13 495.298 L2057.13 450.04 L2057.13 404.782 L2057.13 359.524 L2057.13 314.266 L2057.13 269.008 L2057.13 223.75 L2057.13 178.492 L2057.13 133.234 L2057.13 87.9763 L2057.13 87.9763 L2057.13 87.9763 L2057.13 87.9763 L1995.33 87.9763 L1933.53 87.9763 L1871.73 87.9763 L1809.93 87.9763 L1748.13 87.9763 L1686.33 87.9763 L1624.53 87.9763 L1562.73 87.9763 L1500.92 87.9763 L1439.12 87.9763 L1377.32 87.9763 L1315.52 87.9763 L1253.72 87.9763 L1191.92 87.9763 L1130.12 87.9763 L1068.32 87.9763 L1006.51 87.9763 L944.713 87.9763 L882.912 87.9763 L821.111 87.9763 L759.31 87.9763 L697.509 87.9763 L635.707 87.9763 L573.906 87.9763 L512.105 87.9763 L450.304 87.9763 L388.503 87.9763 L326.701 87.9763 L264.9 87.9763 L203.099 87.9763 L203.099 87.9763 L203.099 87.9763 L203.099 87.9763 L203.099 133.234 L203.099 178.492 L203.099 223.75 L203.099 269.008 L203.099 314.266 L203.099 359.524 L203.099 404.782 L203.099 450.04 L203.099 495.298 L203.099 540.556 L203.099 585.814 L203.099 631.072 L203.099 676.33 L203.099 721.588 L203.099 766.846 L203.099 812.104 L203.099 857.362 L203.099 902.62 L203.099 947.878 L203.099 993.136 L203.099 1038.39 L203.099 1083.65 L203.099 1128.91  Z" fill="#5d126e" fill-rule="evenodd" fill-opacity="1"/>
<path clip-path="url(#clip642)" d="M203.099 993.136 L203.099 958.115 L226.16 947.878 L264.9 931.713 L326.701 908.051 L342.168 902.62 L388.503 887.262 L450.304 868.687 L492.133 857.362 L512.105 852.238 L573.906 838.011 L635.707 825.475 L697.509 814.576 L713.788 812.104 L759.31 805.524 L821.111 798.038 L882.912 791.978 L944.713 787.303 L1006.51 783.972 L1068.32 781.946 L1130.12 781.187 L1191.92 781.659 L1253.72 783.328 L1315.52 786.16 L1377.32 790.123 L1439.12 795.186 L1500.92 801.319 L1562.73 808.493 L1589.84 812.104 L1624.53 816.839 L1686.33 826.326 L1748.13 836.8 L1809.93 848.235 L1855.42 857.362 L1871.73 860.718 L1933.53 874.452 L1995.33 889.094 L2049.11 902.62 L2057.13 904.691 L2057.13 947.878 L2057.13 902.62 L2057.13 857.362 L2057.13 812.104 L2057.13 766.846 L2057.13 721.588 L2057.13 676.33 L2057.13 631.072 L2057.13 585.814 L2057.13 540.556 L2057.13 495.298 L2057.13 450.04 L2057.13 404.782 L2057.13 359.524 L2057.13 314.266 L2057.13 269.008 L2057.13 223.75 L2057.13 178.492 L2057.13 133.234 L2057.13 87.9763 L2057.13 87.9763 L2057.13 87.9763 L2057.13 87.9763 L1995.33 87.9763 L1933.53 87.9763 L1871.73 87.9763 L1809.93 87.9763 L1748.13 87.9763 L1686.33 87.9763 L1624.53 87.9763 L1562.73 87.9763 L1500.92 87.9763 L1439.12 87.9763 L1377.32 87.9763 L1315.52 87.9763 L1253.72 87.9763 L1191.92 87.9763 L1130.12 87.9763 L1068.32 87.9763 L1006.51 87.9763 L944.713 87.9763 L882.912 87.9763 L821.111 87.9763 L759.31 87.9763 L697.509 87.9763 L635.707 87.9763 L573.906 87.9763 L512.105 87.9763 L450.304 87.9763 L388.503 87.9763 L326.701 87.9763 L264.9 87.9763 L203.099 87.9763 L203.099 87.9763 L203.099 87.9763 L203.099 87.9763 L203.099 133.234 L203.099 178.492 L203.099 223.75 L203.099 269.008 L203.099 314.266 L203.099 359.524 L203.099 404.782 L203.099 450.04 L203.099 495.298 L203.099 540.556 L203.099 585.814 L203.099 631.072 L203.099 676.33 L203.099 721.588 L203.099 766.846 L203.099 812.104 L203.099 857.362 L203.099 902.62 L203.099 947.878 L203.099 993.136  Z" fill="#781c6d" fill-rule="evenodd" fill-opacity="1"/>
<path clip-path="url(#clip642)" d="M203.099 857.362 L203.099 826.254 L242.413 812.104 L264.9 804.436 L326.701 785.079 L388.503 767.53 L391.15 766.846 L450.304 752.313 L512.105 738.74 L573.906 726.734 L604.082 721.588 L635.707 716.441 L697.509 707.752 L759.31 700.437 L821.111 694.46 L882.912 689.782 L944.713 686.367 L1006.51 684.182 L1068.32 683.193 L1130.12 683.367 L1191.92 684.675 L1253.72 687.086 L1315.52 690.571 L1377.32 695.102 L1439.12 700.653 L1500.92 707.198 L1562.73 714.711 L1612.9 721.588 L1624.53 723.22 L1686.33 732.898 L1748.13 743.499 L1809.93 754.997 L1869.08 766.846 L1871.73 767.389 L1933.53 781.04 L1995.33 795.544 L2057.13 810.88 L2057.13 812.104 L2057.13 766.846 L2057.13 721.588 L2057.13 676.33 L2057.13 631.072 L2057.13 585.814 L2057.13 540.556 L2057.13 495.298 L2057.13 450.04 L2057.13 404.782 L2057.13 359.524 L2057.13 314.266 L2057.13 269.008 L2057.13 223.75 L2057.13 178.492 L2057.13 133.234 L2057.13 87.9763 L2057.13 87.9763 L2057.13 87.9763 L2057.13 87.9763 L1995.33 87.9763 L1933.53 87.9763 L1871.73 87.9763 L1809.93 87.9763 L1748.13 87.9763 L1686.33 87.9763 L1624.53 87.9763 L1562.73 87.9763 L1500.92 87.9763 L1439.12 87.9763 L1377.32 87.9763 L1315.52 87.9763 L1253.72 87.9763 L1191.92 87.9763 L1130.12 87.9763 L1068.32 87.9763 L1006.51 87.9763 L944.713 87.9763 L882.912 87.9763 L821.111 87.9763 L759.31 87.9763 L697.509 87.9763 L635.707 87.9763 L573.906 87.9763 L512.105 87.9763 L450.304 87.9763 L388.503 87.9763 L326.701 87.9763 L264.9 87.9763 L203.099 87.9763 L203.099 87.9763 L203.099 87.9763 L203.099 87.9763 L203.099 133.234 L203.099 178.492 L203.099 223.75 L203.099 269.008 L203.099 314.266 L203.099 359.524 L203.099 404.782 L203.099 450.04 L203.099 495.298 L203.099 540.556 L203.099 585.814 L203.099 631.072 L203.099 676.33 L203.099 721.588 L203.099 766.846 L203.099 812.104 L203.099 857.362  Z" fill="#932567" fill-rule="evenodd" fill-opacity="1"/>
<path clip-path="url(#clip642)" d="M2057.13 722.909 L2057.13 766.846 L2057.13 721.588 L2057.13 676.33 L2057.13 631.072 L2057.13 585.814 L2057.13 540.556 L2057.13 495.298 L2057.13 450.04 L2057.13 404.782 L2057.13 359.524 L2057.13 314.266 L2057.13 269.008 L2057.13 223.75 L2057.13 178.492 L2057.13 133.234 L2057.13 87.9763 L2057.13 87.9763 L2057.13 87.9763 L2057.13 87.9763 L1995.33 87.9763 L1933.53 87.9763 L1871.73 87.9763 L1809.93 87.9763 L1748.13 87.9763 L1686.33 87.9763 L1624.53 87.9763 L1562.73 87.9763 L1500.92 87.9763 L1439.12 87.9763 L1377.32 87.9763 L1315.52 87.9763 L1253.72 87.9763 L1191.92 87.9763 L1130.12 87.9763 L1068.32 87.9763 L1006.51 87.9763 L944.713 87.9763 L882.912 87.9763 L821.111 87.9763 L759.31 87.9763 L697.509 87.9763 L635.707 87.9763 L573.906 87.9763 L512.105 87.9763 L450.304 87.9763 L388.503 87.9763 L326.701 87.9763 L264.9 87.9763 L203.099 87.9763 L203.099 87.9763 L203.099 87.9763 L203.099 87.9763 L203.099 133.234 L203.099 178.492 L203.099 223.75 L203.099 269.008 L203.099 314.266 L203.099 359.524 L203.099 404.782 L203.099 450.04 L203.099 495.298 L203.099 540.556 L203.099 585.814 L203.099 631.072 L203.099 676.33 L203.099 721.588 L203.099 709.252 L264.9 690.843 L318.408 676.33 L326.701 674.185 L388.503 659.611 L450.304 646.541 L512.105 634.933 L535.388 631.072 L573.906 624.96 L635.707 616.447 L697.509 609.228 L759.31 603.266 L821.111 598.53 L882.912 594.987 L944.713 592.608 L1006.51 591.361 L1068.32 591.218 L1130.12 592.153 L1191.92 594.136 L1253.72 597.144 L1315.52 601.15 L1377.32 606.131 L1439.12 612.063 L1500.92 618.923 L1562.73 626.689 L1593.92 631.072 L1624.53 635.469 L1686.33 645.269 L1748.13 655.934 L1809.93 667.443 L1854.36 676.33 L1871.73 679.881 L1933.53 693.413 L1995.33 707.749 L2051.86 721.588 L2057.13 722.909  Z" fill="#ae305b" fill-rule="evenodd" fill-opacity="1"/>
<path clip-path="url(#clip642)" d="M2057.13 639.878 L2057.13 676.33 L2057.13 631.072 L2057.13 585.814 L2057.13 540.556 L2057.13 495.298 L2057.13 450.04 L2057.13 404.782 L2057.13 359.524 L2057.13 314.266 L2057.13 269.008 L2057.13 223.75 L2057.13 178.492 L2057.13 133.234 L2057.13 87.9763 L2057.13 87.9763 L2057.13 87.9763 L2057.13 87.9763 L1995.33 87.9763 L1933.53 87.9763 L1871.73 87.9763 L1809.93 87.9763 L1748.13 87.9763 L1686.33 87.9763 L1624.53 87.9763 L1562.73 87.9763 L1500.92 87.9763 L1439.12 87.9763 L1377.32 87.9763 L1315.52 87.9763 L1253.72 87.9763 L1191.92 87.9763 L1130.12 87.9763 L1068.32 87.9763 L1006.51 87.9763 L944.713 87.9763 L882.912 87.9763 L821.111 87.9763 L759.31 87.9763 L697.509 87.9763 L635.707 87.9763 L573.906 87.9763 L512.105 87.9763 L450.304 87.9763 L388.503 87.9763 L326.701 87.9763 L264.9 87.9763 L203.099 87.9763 L203.099 87.9763 L203.099 87.9763 L203.099 87.9763 L203.099 133.234 L203.099 178.492 L203.099 223.75 L203.099 269.008 L203.099 314.266 L203.099 359.524 L203.099 404.782 L203.099 450.04 L203.099 495.298 L203.099 540.556 L203.099 585.814 L203.099 631.072 L203.099 603.068 L264.9 586.977 L269.787 585.814 L326.701 572.851 L388.503 560.173 L450.304 548.864 L501.701 540.556 L512.105 538.943 L573.906 530.541 L635.707 523.36 L697.509 517.369 L759.31 512.537 L821.111 508.837 L882.912 506.24 L944.713 504.721 L1006.51 504.253 L1068.32 504.811 L1130.12 506.371 L1191.92 508.909 L1253.72 512.403 L1315.52 516.831 L1377.32 522.17 L1439.12 528.401 L1500.92 535.504 L1540.07 540.556 L1562.73 543.541 L1624.53 552.579 L1686.33 562.45 L1748.13 573.136 L1809.93 584.619 L1815.91 585.814 L1871.73 597.197 L1933.53 610.587 L1995.33 624.738 L2021.5 631.072 L2057.13 639.878  Z" fill="#c73e4c" fill-rule="evenodd" fill-opacity="1"/>
<path clip-path="url(#clip642)" d="M1995.33 545.888 L2057.13 560.949 L2057.13 585.814 L2057.13 540.556 L2057.13 495.298 L2057.13 450.04 L2057.13 404.782 L2057.13 359.524 L2057.13 314.266 L2057.13 269.008 L2057.13 223.75 L2057.13 178.492 L2057.13 133.234 L2057.13 87.9763 L2057.13 87.9763 L2057.13 87.9763 L2057.13 87.9763 L1995.33 87.9763 L1933.53 87.9763 L1871.73 87.9763 L1809.93 87.9763 L1748.13 87.9763 L1686.33 87.9763 L1624.53 87.9763 L1562.73 87.9763 L1500.92 87.9763 L1439.12 87.9763 L1377.32 87.9763 L1315.52 87.9763 L1253.72 87.9763 L1191.92 87.9763 L1130.12 87.9763 L1068.32 87.9763 L1006.51 87.9763 L944.713 87.9763 L882.912 87.9763 L821.111 87.9763 L759.31 87.9763 L697.509 87.9763 L635.707 87.9763 L573.906 87.9763 L512.105 87.9763 L450.304 87.9763 L388.503 87.9763 L326.701 87.9763 L264.9 87.9763 L203.099 87.9763 L203.099 87.9763 L203.099 87.9763 L203.099 87.9763 L203.099 133.234 L203.099 178.492 L203.099 223.75 L203.099 269.008 L203.099 314.266 L203.099 359.524 L203.099 404.782 L203.099 450.04 L203.099 495.298 L203.099 540.556 L203.099 505.053 L245.578 495.298 L264.9 491.042 L326.701 478.669 L388.503 467.586 L450.304 457.76 L505.738 450.04 L512.105 449.187 L573.906 442.005 L635.707 435.95 L697.509 430.998 L759.31 427.121 L821.111 424.296 L882.912 422.497 L944.713 421.702 L1006.51 421.887 L1068.32 423.032 L1130.12 425.113 L1191.92 428.111 L1253.72 432.005 L1315.52 436.776 L1377.32 442.405 L1439.12 448.873 L1448.96 450.04 L1500.92 456.331 L1562.73 464.643 L1624.53 473.761 L1686.33 483.666 L1748.13 494.343 L1753.26 495.298 L1809.93 506.059 L1871.73 518.555 L1933.53 531.79 L1972.25 540.556 L1995.33 545.888  Z" fill="#dc5039" fill-rule="evenodd" fill-opacity="1"/>
<path clip-path="url(#clip642)" d="M1933.53 456.572 L1995.33 470.687 L2057.13 485.489 L2057.13 495.298 L2057.13 450.04 L2057.13 404.782 L2057.13 359.524 L2057.13 314.266 L2057.13 269.008 L2057.13 223.75 L2057.13 178.492 L2057.13 133.234 L2057.13 87.9763 L2057.13 87.9763 L2057.13 87.9763 L2057.13 87.9763 L1995.33 87.9763 L1933.53 87.9763 L1871.73 87.9763 L1809.93 87.9763 L1748.13 87.9763 L1686.33 87.9763 L1624.53 87.9763 L1562.73 87.9763 L1500.92 87.9763 L1439.12 87.9763 L1377.32 87.9763 L1315.52 87.9763 L1253.72 87.9763 L1191.92 87.9763 L1130.12 87.9763 L1068.32 87.9763 L1006.51 87.9763 L944.713 87.9763 L882.912 87.9763 L821.111 87.9763 L759.31 87.9763 L697.509 87.9763 L635.707 87.9763 L573.906 87.9763 L512.105 87.9763 L450.304 87.9763 L388.503 87.9763 L326.701 87.9763 L264.9 87.9763 L203.099 87.9763 L203.099 87.9763 L203.099 87.9763 L203.099 87.9763 L203.099 133.234 L203.099 178.492 L203.099 223.75 L203.099 269.008 L203.099 314.266 L203.099 359.524 L203.099 404.782 L203.099 450.04 L203.099 413.668 L246.881 404.782 L264.9 401.265 L326.701 390.352 L388.503 380.628 L450.304 372.066 L512.105 364.639 L562.049 359.524 L573.906 358.353 L635.707 353.263 L697.509 349.199 L759.31 346.138 L821.111 344.059 L882.912 342.941 L944.713 342.761 L1006.51 343.501 L1068.32 345.141 L1130.12 347.661 L1191.92 351.044 L1253.72 355.271 L1305.67 359.524 L1315.52 360.346 L1377.32 366.364 L1439.12 373.194 L1500.92 380.819 L1562.73 389.222 L1624.53 398.388 L1664.3 404.782 L1686.33 408.393 L1748.13 419.313 L1809.93 430.965 L1871.73 443.335 L1903.33 450.04 L1933.53 456.572  Z" fill="#ed6825" fill-rule="evenodd" fill-opacity="1"/>
<path clip-path="url(#clip642)" d="M2057.13 413.193 L2057.13 450.04 L2057.13 404.782 L2057.13 359.524 L2057.13 314.266 L2057.13 269.008 L2057.13 223.75 L2057.13 178.492 L2057.13 133.234 L2057.13 87.9763 L2057.13 87.9763 L2057.13 87.9763 L2057.13 87.9763 L1995.33 87.9763 L1933.53 87.9763 L1871.73 87.9763 L1809.93 87.9763 L1748.13 87.9763 L1686.33 87.9763 L1624.53 87.9763 L1562.73 87.9763 L1500.92 87.9763 L1439.12 87.9763 L1377.32 87.9763 L1315.52 87.9763 L1253.72 87.9763 L1191.92 87.9763 L1130.12 87.9763 L1068.32 87.9763 L1006.51 87.9763 L944.713 87.9763 L882.912 87.9763 L821.111 87.9763 L759.31 87.9763 L697.509 87.9763 L635.707 87.9763 L573.906 87.9763 L512.105 87.9763 L450.304 87.9763 L388.503 87.9763 L326.701 87.9763 L264.9 87.9763 L203.099 87.9763 L203.099 87.9763 L203.099 87.9763 L203.099 87.9763 L203.099 133.234 L203.099 178.492 L203.099 223.75 L203.099 269.008 L203.099 314.266 L203.099 359.524 L203.099 327.736 L264.9 316.629 L279.507 314.266 L326.701 306.904 L388.503 298.351 L450.304 290.877 L512.105 284.459 L573.906 279.074 L635.707 274.698 L697.509 271.311 L756.272 269.008 L759.31 268.893 L821.111 267.457 L882.912 266.923 L944.713 267.272 L1006.51 268.487 L1022.06 269.008 L1068.32 270.589 L1130.12 273.557 L1191.92 277.358 L1253.72 281.977 L1315.52 287.396 L1377.32 293.6 L1439.12 300.573 L1500.92 308.3 L1544.4 314.266 L1562.73 316.828 L1624.53 326.248 L1686.33 336.392 L1748.13 347.247 L1809.93 358.799 L1813.57 359.524 L1871.73 371.322 L1933.53 384.546 L1995.33 398.438 L2022.18 404.782 L2057.13 413.193  Z" fill="#f7850e" fill-rule="evenodd" fill-opacity="1"/>
<path clip-path="url(#clip642)" d="M1933.53 315.07 L1995.33 329.074 L2057.13 343.717 L2057.13 359.524 L2057.13 314.266 L2057.13 269.008 L2057.13 223.75 L2057.13 178.492 L2057.13 133.234 L2057.13 87.9763 L2057.13 87.9763 L2057.13 87.9763 L2057.13 87.9763 L1995.33 87.9763 L1933.53 87.9763 L1871.73 87.9763 L1809.93 87.9763 L1748.13 87.9763 L1686.33 87.9763 L1624.53 87.9763 L1562.73 87.9763 L1500.92 87.9763 L1439.12 87.9763 L1377.32 87.9763 L1315.52 87.9763 L1253.72 87.9763 L1191.92 87.9763 L1130.12 87.9763 L1068.32 87.9763 L1006.51 87.9763 L944.713 87.9763 L882.912 87.9763 L821.111 87.9763 L759.31 87.9763 L697.509 87.9763 L635.707 87.9763 L573.906 87.9763 L512.105 87.9763 L450.304 87.9763 L388.503 87.9763 L326.701 87.9763 L264.9 87.9763 L203.099 87.9763 L203.099 87.9763 L203.099 87.9763 L203.099 87.9763 L203.099 133.234 L203.099 178.492 L203.099 223.75 L203.099 269.008 L203.099 246.344 L264.9 236.454 L326.701 227.65 L357.712 223.75 L388.503 220.009 L450.304 213.481 L512.105 207.94 L573.906 203.365 L635.707 199.737 L697.509 197.037 L759.31 195.244 L821.111 194.342 L882.912 194.312 L944.713 195.136 L1006.51 196.798 L1068.32 199.28 L1130.12 202.568 L1191.92 206.645 L1253.72 211.497 L1315.52 217.107 L1377.32 223.462 L1379.82 223.75 L1439.12 230.713 L1500.92 238.703 L1562.73 247.41 L1624.53 256.822 L1686.33 266.924 L1698.21 269.008 L1748.13 277.914 L1809.93 289.633 L1871.73 302.016 L1929.79 314.266 L1933.53 315.07  Z" fill="#fba40a" fill-rule="evenodd" fill-opacity="1"/>
<path clip-path="url(#clip642)" d="M2057.13 276.625 L2057.13 314.266 L2057.13 269.008 L2057.13 223.75 L2057.13 178.492 L2057.13 133.234 L2057.13 87.9763 L2057.13 87.9763 L2057.13 87.9763 L2057.13 87.9763 L1995.33 87.9763 L1933.53 87.9763 L1871.73 87.9763 L1809.93 87.9763 L1748.13 87.9763 L1686.33 87.9763 L1624.53 87.9763 L1562.73 87.9763 L1500.92 87.9763 L1439.12 87.9763 L1377.32 87.9763 L1315.52 87.9763 L1253.72 87.9763 L1191.92 87.9763 L1130.12 87.9763 L1068.32 87.9763 L1006.51 87.9763 L944.713 87.9763 L882.912 87.9763 L821.111 87.9763 L759.31 87.9763 L697.509 87.9763 L635.707 87.9763 L573.906 87.9763 L512.105 87.9763 L450.304 87.9763 L388.503 87.9763 L326.701 87.9763 L264.9 87.9763 L203.099 87.9763 L203.099 87.9763 L203.099 87.9763 L203.099 87.9763 L203.099 133.234 L203.099 178.492 L203.099 168.773 L264.9 159.945 L326.701 152.131 L388.503 145.31 L450.304 139.462 L512.105 134.566 L532.788 133.234 L573.906 130.669 L635.707 127.696 L697.509 125.596 L759.31 124.353 L821.111 123.949 L882.912 124.37 L944.713 125.599 L1006.51 127.62 L1068.32 130.42 L1117.07 133.234 L1130.12 134.001 L1191.92 138.415 L1253.72 143.581 L1315.52 149.485 L1377.32 156.112 L1439.12 163.45 L1500.92 171.485 L1550.53 178.492 L1562.73 180.244 L1624.53 189.854 L1686.33 200.135 L1748.13 211.077 L1809.93 222.667 L1815.37 223.75 L1871.73 235.152 L1933.53 248.298 L1995.33 262.068 L2025.06 269.008 L2057.13 276.625  Z" fill="#f9c52c" fill-rule="evenodd" fill-opacity="1"/>
<path clip-path="url(#clip642)" d="M1933.53 183.538 L1995.33 197.386 L2057.13 211.833 L2057.13 223.75 L2057.13 178.492 L2057.13 133.234 L2057.13 87.9763 L2057.13 87.9763 L2057.13 87.9763 L2057.13 87.9763 L1995.33 87.9763 L1933.53 87.9763 L1871.73 87.9763 L1809.93 87.9763 L1748.13 87.9763 L1686.33 87.9763 L1624.53 87.9763 L1562.73 87.9763 L1500.92 87.9763 L1439.12 87.9763 L1377.32 87.9763 L1315.52 87.9763 L1351.85 87.9763 L1377.32 90.7999 L1439.12 98.3657 L1500.92 106.61 L1562.73 115.521 L1624.53 125.087 L1673.78 133.234 L1686.33 135.343 L1748.13 146.427 L1809.93 158.144 L1871.73 170.48 L1909.89 178.492 L1933.53 183.538 M203.099 133.234 L203.099 94.6128 L253.695 87.9763 L203.099 87.9763 L203.099 87.9763 L203.099 87.9763 L203.099 87.9763 L203.099 87.9763 L203.099 133.234  Z" fill="#f2e660" fill-rule="evenodd" fill-opacity="1"/>
<path clip-path="url(#clip642)" d="M1995.33 134.55 L2057.13 149.047 L2057.13 178.492 L2057.13 133.234 L2057.13 87.9763 L2057.13 87.9763 L2057.13 87.9763 L2057.13 87.9763 L1995.33 87.9763 L1933.53 87.9763 L1871.73 87.9763 L1809.93 87.9763 L1748.13 87.9763 L1770.79 87.9763 L1809.93 95.4506 L1871.73 107.882 L1933.53 120.91 L1989.46 133.234 L1995.33 134.55  Z" fill="#fcfea4" fill-rule="evenodd" fill-opacity="1"/>
<polyline clip-path="url(#clip642)" style="stroke:#000003; stroke-linecap:round; stroke-linejoin:round; stroke-width:4; stroke-opacity:1; fill:none" points="203.099,1445.72 203.099,1445.72 264.9,1445.72 326.701,1445.72 388.503,1445.72 450.304,1445.72 512.105,1445.72 573.906,1445.72 635.707,1445.72 697.509,1445.72 759.31,1445.72 821.111,1445.72 882.912,1445.72 944.713,1445.72 1006.51,1445.72 1068.32,1445.72 1130.12,1445.72 1191.92,1445.72 1253.72,1445.72 1315.52,1445.72 1377.32,1445.72 1439.12,1445.72 1500.92,1445.72 1562.73,1445.72 1624.53,1445.72 1686.33,1445.72 1748.13,1445.72 1809.93,1445.72 1871.73,1445.72 1933.53,1445.72 1995.33,1445.72 2057.13,1445.72 2057.13,1400.46 2057.13,1355.2 2057.13,1309.94 2057.13,1264.68 2057.13,1219.43 2057.13,1174.17 2057.13,1128.91 2057.13,1083.65 2057.13,1038.39 2057.13,993.136 2057.13,947.878 2057.13,902.62 2057.13,857.362 2057.13,812.104 2057.13,766.846 2057.13,721.588 2057.13,676.33 2057.13,631.072 2057.13,585.814 2057.13,540.556 2057.13,495.298 2057.13,450.04 2057.13,404.782 2057.13,359.524 2057.13,314.266 2057.13,269.008 2057.13,223.75 2057.13,178.492 2057.13,133.234 2057.13,87.9763 1995.33,87.9763 1933.53,87.9763 1871.73,87.9763 1809.93,87.9763 1748.13,87.9763 1686.33,87.9763 1624.53,87.9763 1562.73,87.9763 1500.92,87.9763 1439.12,87.9763 1377.32,87.9763 1315.52,87.9763 1253.72,87.9763 1191.92,87.9763 1130.12,87.9763 1068.32,87.9763 1006.51,87.9763 944.713,87.9763 882.912,87.9763 821.111,87.9763 759.31,87.9763 697.509,87.9763 635.707,87.9763 573.906,87.9763 512.105,87.9763 450.304,87.9763 388.503,87.9763 326.701,87.9763 264.9,87.9763 203.099,87.9763 203.099,133.234 203.099,178.492 203.099,223.75 203.099,269.008 203.099,314.266 203.099,359.524 203.099,404.782 203.099,450.04 203.099,495.298 203.099,540.556 203.099,585.814 203.099,631.072 203.099,676.33 203.099,721.588 203.099,766.846 203.099,812.104 203.099,857.362 203.099,902.62 203.099,947.878 203.099,993.136 203.099,1038.39 203.099,1083.65 203.099,1128.91 203.099,1174.17 203.099,1219.43 203.099,1264.68 203.099,1309.94 203.099,1355.2 203.099,1400.46 203.099,1445.72 "/>
<polyline clip-path="url(#clip642)" style="stroke:#000003; stroke-linecap:round; stroke-linejoin:round; stroke-width:4; stroke-opacity:1; fill:none" points="203.099,1445.72 203.099,1445.72 264.9,1445.72 326.701,1445.72 388.503,1445.72 450.304,1445.72 512.105,1445.72 573.906,1445.72 635.707,1445.72 660.552,1445.72 697.509,1423.85 741.735,1400.46 759.31,1392.05 821.111,1365.77 849.486,1355.2 882.912,1343.82 944.713,1325.62 1006.51,1310.3 1008.22,1309.94 1068.32,1298.43 1130.12,1288.99 1191.92,1281.85 1253.72,1276.9 1315.52,1274.03 1377.32,1273.16 1439.12,1274.2 1500.92,1277.06 1562.73,1281.67 1624.53,1287.96 1686.33,1295.84 1748.13,1305.27 1774.42,1309.94 1809.93,1316.5 1871.73,1329.46 1933.53,1343.83 1978.02,1355.2 1995.33,1359.8 2057.13,1377.73 2057.13,1400.46 2057.13,1355.2 2057.13,1309.94 2057.13,1264.68 2057.13,1219.43 2057.13,1174.17 2057.13,1128.91 2057.13,1083.65 2057.13,1038.39 2057.13,993.136 2057.13,947.878 2057.13,902.62 2057.13,857.362 2057.13,812.104 2057.13,766.846 2057.13,721.588 2057.13,676.33 2057.13,631.072 2057.13,585.814 2057.13,540.556 2057.13,495.298 2057.13,450.04 2057.13,404.782 2057.13,359.524 2057.13,314.266 2057.13,269.008 2057.13,223.75 2057.13,178.492 2057.13,133.234 2057.13,87.9763 1995.33,87.9763 1933.53,87.9763 1871.73,87.9763 1809.93,87.9763 1748.13,87.9763 1686.33,87.9763 1624.53,87.9763 1562.73,87.9763 1500.92,87.9763 1439.12,87.9763 1377.32,87.9763 1315.52,87.9763 1253.72,87.9763 1191.92,87.9763 1130.12,87.9763 1068.32,87.9763 1006.51,87.9763 944.713,87.9763 882.912,87.9763 821.111,87.9763 759.31,87.9763 697.509,87.9763 635.707,87.9763 573.906,87.9763 512.105,87.9763 450.304,87.9763 388.503,87.9763 326.701,87.9763 264.9,87.9763 203.099,87.9763 203.099,133.234 203.099,178.492 203.099,223.75 203.099,269.008 203.099,314.266 203.099,359.524 203.099,404.782 203.099,450.04 203.099,495.298 203.099,540.556 203.099,585.814 203.099,631.072 203.099,676.33 203.099,721.588 203.099,766.846 203.099,812.104 203.099,857.362 203.099,902.62 203.099,947.878 203.099,993.136 203.099,1038.39 203.099,1083.65 203.099,1128.91 203.099,1174.17 203.099,1219.43 203.099,1264.68 203.099,1309.94 203.099,1355.2 203.099,1400.46 203.099,1445.72 "/>
<polyline clip-path="url(#clip642)" style="stroke:#000003; stroke-linecap:round; stroke-linejoin:round; stroke-width:4; stroke-opacity:1; fill:none" points="203.099,1445.72 203.099,1445.72 264.9,1445.72 326.701,1445.72 329.945,1445.72 378.628,1400.46 388.503,1392.27 436.944,1355.2 450.304,1345.98 507.325,1309.94 512.105,1307.19 573.906,1274.7 595.008,1264.68 635.707,1246.92 697.509,1222.84 707.341,1219.43 759.31,1202.69 821.111,1185.3 866.988,1174.17 882.912,1170.56 944.713,1158.62 1006.51,1148.78 1068.32,1140.95 1130.12,1135.06 1191.92,1131.02 1249.94,1128.91 1253.72,1128.78 1315.52,1128.27 1352.47,1128.91 1377.32,1129.35 1439.12,1132.06 1500.92,1136.29 1562.73,1141.99 1624.53,1149.11 1686.33,1157.6 1748.13,1167.41 1785.67,1174.17 1809.93,1178.68 1871.73,1191.55 1933.53,1205.64 1989.27,1219.43 1995.33,1220.98 2057.13,1238.14 2057.13,1264.68 2057.13,1219.43 2057.13,1174.17 2057.13,1128.91 2057.13,1083.65 2057.13,1038.39 2057.13,993.136 2057.13,947.878 2057.13,902.62 2057.13,857.362 2057.13,812.104 2057.13,766.846 2057.13,721.588 2057.13,676.33 2057.13,631.072 2057.13,585.814 2057.13,540.556 2057.13,495.298 2057.13,450.04 2057.13,404.782 2057.13,359.524 2057.13,314.266 2057.13,269.008 2057.13,223.75 2057.13,178.492 2057.13,133.234 2057.13,87.9763 1995.33,87.9763 1933.53,87.9763 1871.73,87.9763 1809.93,87.9763 1748.13,87.9763 1686.33,87.9763 1624.53,87.9763 1562.73,87.9763 1500.92,87.9763 1439.12,87.9763 1377.32,87.9763 1315.52,87.9763 1253.72,87.9763 1191.92,87.9763 1130.12,87.9763 1068.32,87.9763 1006.51,87.9763 944.713,87.9763 882.912,87.9763 821.111,87.9763 759.31,87.9763 697.509,87.9763 635.707,87.9763 573.906,87.9763 512.105,87.9763 450.304,87.9763 388.503,87.9763 326.701,87.9763 264.9,87.9763 203.099,87.9763 203.099,133.234 203.099,178.492 203.099,223.75 203.099,269.008 203.099,314.266 203.099,359.524 203.099,404.782 203.099,450.04 203.099,495.298 203.099,540.556 203.099,585.814 203.099,631.072 203.099,676.33 203.099,721.588 203.099,766.846 203.099,812.104 203.099,857.362 203.099,902.62 203.099,947.878 203.099,993.136 203.099,1038.39 203.099,1083.65 203.099,1128.91 203.099,1174.17 203.099,1219.43 203.099,1264.68 203.099,1309.94 203.099,1355.2 203.099,1400.46 203.099,1445.72 "/>
<polyline clip-path="url(#clip642)" style="stroke:#000003; stroke-linecap:round; stroke-linejoin:round; stroke-width:4; stroke-opacity:1; fill:none" points="203.099,1309.94 203.099,1308.23 258.04,1264.68 264.9,1259.74 325.22,1219.43 326.701,1218.52 388.503,1183.47 406.414,1174.17 450.304,1153.08 505.71,1128.91 512.105,1126.31 573.906,1103.49 634.154,1083.65 635.707,1083.17 697.509,1066.1 759.31,1051.17 820.664,1038.39 821.111,1038.31 882.912,1027.91 944.713,1019.32 1006.51,1012.47 1068.32,1007.29 1130.12,1003.73 1191.92,1001.74 1253.72,1001.25 1315.52,1002.23 1377.32,1004.61 1439.12,1008.35 1500.92,1013.41 1562.73,1019.75 1624.53,1027.32 1686.33,1036.09 1700.58,1038.39 1748.13,1046.32 1809.93,1057.81 1871.73,1070.42 1931.43,1083.65 1933.53,1084.13 1995.33,1099.48 2057.13,1115.87 2057.13,1128.91 2057.13,1083.65 2057.13,1038.39 2057.13,993.136 2057.13,947.878 2057.13,902.62 2057.13,857.362 2057.13,812.104 2057.13,766.846 2057.13,721.588 2057.13,676.33 2057.13,631.072 2057.13,585.814 2057.13,540.556 2057.13,495.298 2057.13,450.04 2057.13,404.782 2057.13,359.524 2057.13,314.266 2057.13,269.008 2057.13,223.75 2057.13,178.492 2057.13,133.234 2057.13,87.9763 1995.33,87.9763 1933.53,87.9763 1871.73,87.9763 1809.93,87.9763 1748.13,87.9763 1686.33,87.9763 1624.53,87.9763 1562.73,87.9763 1500.92,87.9763 1439.12,87.9763 1377.32,87.9763 1315.52,87.9763 1253.72,87.9763 1191.92,87.9763 1130.12,87.9763 1068.32,87.9763 1006.51,87.9763 944.713,87.9763 882.912,87.9763 821.111,87.9763 759.31,87.9763 697.509,87.9763 635.707,87.9763 573.906,87.9763 512.105,87.9763 450.304,87.9763 388.503,87.9763 326.701,87.9763 264.9,87.9763 203.099,87.9763 203.099,133.234 203.099,178.492 203.099,223.75 203.099,269.008 203.099,314.266 203.099,359.524 203.099,404.782 203.099,450.04 203.099,495.298 203.099,540.556 203.099,585.814 203.099,631.072 203.099,676.33 203.099,721.588 203.099,766.846 203.099,812.104 203.099,857.362 203.099,902.62 203.099,947.878 203.099,993.136 203.099,1038.39 203.099,1083.65 203.099,1128.91 203.099,1174.17 203.099,1219.43 203.099,1264.68 203.099,1309.94 "/>
<polyline clip-path="url(#clip642)" style="stroke:#000003; stroke-linecap:round; stroke-linejoin:round; stroke-width:4; stroke-opacity:1; fill:none" points="203.099,1128.91 203.099,1112.78 255.314,1083.65 264.9,1078.68 326.701,1049.02 350.825,1038.39 388.503,1022.87 450.304,999.681 469.496,993.136 512.105,979.475 573.906,961.673 627.822,947.878 635.707,945.973 697.509,932.726 759.31,921.256 821.111,911.5 882.912,903.403 890.288,902.62 944.713,897.136 1006.51,892.384 1068.32,889.068 1130.12,887.145 1191.92,886.571 1253.72,887.305 1315.52,889.309 1377.32,892.544 1439.12,896.974 1500.92,902.565 1501.43,902.62 1562.73,909.532 1624.53,917.631 1686.33,926.828 1748.13,937.089 1807.13,947.878 1809.93,948.404 1871.73,961.16 1933.53,974.918 1995.33,989.652 2008.96,993.136 2057.13,1005.79 2057.13,1038.39 2057.13,993.136 2057.13,947.878 2057.13,902.62 2057.13,857.362 2057.13,812.104 2057.13,766.846 2057.13,721.588 2057.13,676.33 2057.13,631.072 2057.13,585.814 2057.13,540.556 2057.13,495.298 2057.13,450.04 2057.13,404.782 2057.13,359.524 2057.13,314.266 2057.13,269.008 2057.13,223.75 2057.13,178.492 2057.13,133.234 2057.13,87.9763 1995.33,87.9763 1933.53,87.9763 1871.73,87.9763 1809.93,87.9763 1748.13,87.9763 1686.33,87.9763 1624.53,87.9763 1562.73,87.9763 1500.92,87.9763 1439.12,87.9763 1377.32,87.9763 1315.52,87.9763 1253.72,87.9763 1191.92,87.9763 1130.12,87.9763 1068.32,87.9763 1006.51,87.9763 944.713,87.9763 882.912,87.9763 821.111,87.9763 759.31,87.9763 697.509,87.9763 635.707,87.9763 573.906,87.9763 512.105,87.9763 450.304,87.9763 388.503,87.9763 326.701,87.9763 264.9,87.9763 203.099,87.9763 203.099,133.234 203.099,178.492 203.099,223.75 203.099,269.008 203.099,314.266 203.099,359.524 203.099,404.782 203.099,450.04 203.099,495.298 203.099,540.556 203.099,585.814 203.099,631.072 203.099,676.33 203.099,721.588 203.099,766.846 203.099,812.104 203.099,857.362 203.099,902.62 203.099,947.878 203.099,993.136 203.099,1038.39 203.099,1083.65 203.099,1128.91 "/>
<polyline clip-path="url(#clip642)" style="stroke:#000003; stroke-linecap:round; stroke-linejoin:round; stroke-width:4; stroke-opacity:1; fill:none" points="203.099,993.136 203.099,958.115 226.16,947.878 264.9,931.713 326.701,908.051 342.168,902.62 388.503,887.262 450.304,868.687 492.133,857.362 512.105,852.238 573.906,838.011 635.707,825.475 697.509,814.576 713.788,812.104 759.31,805.524 821.111,798.038 882.912,791.978 944.713,787.303 1006.51,783.972 1068.32,781.946 1130.12,781.187 1191.92,781.659 1253.72,783.328 1315.52,786.16 1377.32,790.123 1439.12,795.186 1500.92,801.319 1562.73,808.493 1589.84,812.104 1624.53,816.839 1686.33,826.326 1748.13,836.8 1809.93,848.235 1855.42,857.362 1871.73,860.718 1933.53,874.452 1995.33,889.094 2049.11,902.62 2057.13,904.691 2057.13,947.878 2057.13,902.62 2057.13,857.362 2057.13,812.104 2057.13,766.846 2057.13,721.588 2057.13,676.33 2057.13,631.072 2057.13,585.814 2057.13,540.556 2057.13,495.298 2057.13,450.04 2057.13,404.782 2057.13,359.524 2057.13,314.266 2057.13,269.008 2057.13,223.75 2057.13,178.492 2057.13,133.234 2057.13,87.9763 1995.33,87.9763 1933.53,87.9763 1871.73,87.9763 1809.93,87.9763 1748.13,87.9763 1686.33,87.9763 1624.53,87.9763 1562.73,87.9763 1500.92,87.9763 1439.12,87.9763 1377.32,87.9763 1315.52,87.9763 1253.72,87.9763 1191.92,87.9763 1130.12,87.9763 1068.32,87.9763 1006.51,87.9763 944.713,87.9763 882.912,87.9763 821.111,87.9763 759.31,87.9763 697.509,87.9763 635.707,87.9763 573.906,87.9763 512.105,87.9763 450.304,87.9763 388.503,87.9763 326.701,87.9763 264.9,87.9763 203.099,87.9763 203.099,133.234 203.099,178.492 203.099,223.75 203.099,269.008 203.099,314.266 203.099,359.524 203.099,404.782 203.099,450.04 203.099,495.298 203.099,540.556 203.099,585.814 203.099,631.072 203.099,676.33 203.099,721.588 203.099,766.846 203.099,812.104 203.099,857.362 203.099,902.62 203.099,947.878 203.099,993.136 "/>
<polyline clip-path="url(#clip642)" style="stroke:#000003; stroke-linecap:round; stroke-linejoin:round; stroke-width:4; stroke-opacity:1; fill:none" points="203.099,857.362 203.099,826.254 242.413,812.104 264.9,804.436 326.701,785.079 388.503,767.53 391.15,766.846 450.304,752.313 512.105,738.74 573.906,726.734 604.082,721.588 635.707,716.441 697.509,707.752 759.31,700.437 821.111,694.46 882.912,689.782 944.713,686.367 1006.51,684.182 1068.32,683.193 1130.12,683.367 1191.92,684.675 1253.72,687.086 1315.52,690.571 1377.32,695.102 1439.12,700.653 1500.92,707.198 1562.73,714.711 1612.9,721.588 1624.53,723.22 1686.33,732.898 1748.13,743.499 1809.93,754.997 1869.08,766.846 1871.73,767.389 1933.53,781.04 1995.33,795.544 2057.13,810.88 2057.13,812.104 2057.13,766.846 2057.13,721.588 2057.13,676.33 2057.13,631.072 2057.13,585.814 2057.13,540.556 2057.13,495.298 2057.13,450.04 2057.13,404.782 2057.13,359.524 2057.13,314.266 2057.13,269.008 2057.13,223.75 2057.13,178.492 2057.13,133.234 2057.13,87.9763 1995.33,87.9763 1933.53,87.9763 1871.73,87.9763 1809.93,87.9763 1748.13,87.9763 1686.33,87.9763 1624.53,87.9763 1562.73,87.9763 1500.92,87.9763 1439.12,87.9763 1377.32,87.9763 1315.52,87.9763 1253.72,87.9763 1191.92,87.9763 1130.12,87.9763 1068.32,87.9763 1006.51,87.9763 944.713,87.9763 882.912,87.9763 821.111,87.9763 759.31,87.9763 697.509,87.9763 635.707,87.9763 573.906,87.9763 512.105,87.9763 450.304,87.9763 388.503,87.9763 326.701,87.9763 264.9,87.9763 203.099,87.9763 203.099,133.234 203.099,178.492 203.099,223.75 203.099,269.008 203.099,314.266 203.099,359.524 203.099,404.782 203.099,450.04 203.099,495.298 203.099,540.556 203.099,585.814 203.099,631.072 203.099,676.33 203.099,721.588 203.099,766.846 203.099,812.104 203.099,857.362 "/>
<polyline clip-path="url(#clip642)" style="stroke:#000003; stroke-linecap:round; stroke-linejoin:round; stroke-width:4; stroke-opacity:1; fill:none" points="2057.13,722.909 2057.13,766.846 2057.13,721.588 2057.13,676.33 2057.13,631.072 2057.13,585.814 2057.13,540.556 2057.13,495.298 2057.13,450.04 2057.13,404.782 2057.13,359.524 2057.13,314.266 2057.13,269.008 2057.13,223.75 2057.13,178.492 2057.13,133.234 2057.13,87.9763 1995.33,87.9763 1933.53,87.9763 1871.73,87.9763 1809.93,87.9763 1748.13,87.9763 1686.33,87.9763 1624.53,87.9763 1562.73,87.9763 1500.92,87.9763 1439.12,87.9763 1377.32,87.9763 1315.52,87.9763 1253.72,87.9763 1191.92,87.9763 1130.12,87.9763 1068.32,87.9763 1006.51,87.9763 944.713,87.9763 882.912,87.9763 821.111,87.9763 759.31,87.9763 697.509,87.9763 635.707,87.9763 573.906,87.9763 512.105,87.9763 450.304,87.9763 388.503,87.9763 326.701,87.9763 264.9,87.9763 203.099,87.9763 203.099,133.234 203.099,178.492 203.099,223.75 203.099,269.008 203.099,314.266 203.099,359.524 203.099,404.782 203.099,450.04 203.099,495.298 203.099,540.556 203.099,585.814 203.099,631.072 203.099,676.33 203.099,721.588 203.099,709.252 264.9,690.843 318.408,676.33 326.701,674.185 388.503,659.611 450.304,646.541 512.105,634.933 535.388,631.072 573.906,624.96 635.707,616.447 697.509,609.228 759.31,603.266 821.111,598.53 882.912,594.987 944.713,592.608 1006.51,591.361 1068.32,591.218 1130.12,592.153 1191.92,594.136 1253.72,597.144 1315.52,601.15 1377.32,606.131 1439.12,612.063 1500.92,618.923 1562.73,626.689 1593.92,631.072 1624.53,635.469 1686.33,645.269 1748.13,655.934 1809.93,667.443 1854.36,676.33 1871.73,679.881 1933.53,693.413 1995.33,707.749 2051.86,721.588 2057.13,722.909 "/>
<polyline clip-path="url(#clip642)" style="stroke:#000003; stroke-linecap:round; stroke-linejoin:round; stroke-width:4; stroke-opacity:1; fill:none" points="2057.13,639.878 2057.13,676.33 2057.13,631.072 2057.13,585.814 2057.13,540.556 2057.13,495.298 2057.13,450.04 2057.13,404.782 2057.13,359.524 2057.13,314.266 2057.13,269.008 2057.13,223.75 2057.13,178.492 2057.13,133.234 2057.13,87.9763 1995.33,87.9763 1933.53,87.9763 1871.73,87.9763 1809.93,87.9763 1748.13,87.9763 1686.33,87.9763 1624.53,87.9763 1562.73,87.9763 1500.92,87.9763 1439.12,87.9763 1377.32,87.9763 1315.52,87.9763 1253.72,87.9763 1191.92,87.9763 1130.12,87.9763 1068.32,87.9763 1006.51,87.9763 944.713,87.9763 882.912,87.9763 821.111,87.9763 759.31,87.9763 697.509,87.9763 635.707,87.9763 573.906,87.9763 512.105,87.9763 450.304,87.9763 388.503,87.9763 326.701,87.9763 264.9,87.9763 203.099,87.9763 203.099,133.234 203.099,178.492 203.099,223.75 203.099,269.008 203.099,314.266 203.099,359.524 203.099,404.782 203.099,450.04 203.099,495.298 203.099,540.556 203.099,585.814 203.099,631.072 203.099,603.068 264.9,586.977 269.787,585.814 326.701,572.851 388.503,560.173 450.304,548.864 501.701,540.556 512.105,538.943 573.906,530.541 635.707,523.36 697.509,517.369 759.31,512.537 821.111,508.837 882.912,506.24 944.713,504.721 1006.51,504.253 1068.32,504.811 1130.12,506.371 1191.92,508.909 1253.72,512.403 1315.52,516.831 1377.32,522.17 1439.12,528.401 1500.92,535.504 1540.07,540.556 1562.73,543.541 1624.53,552.579 1686.33,562.45 1748.13,573.136 1809.93,584.619 1815.91,585.814 1871.73,597.197 1933.53,610.587 1995.33,624.738 2021.5,631.072 2057.13,639.878 "/>
<polyline clip-path="url(#clip642)" style="stroke:#000003; stroke-linecap:round; stroke-linejoin:round; stroke-width:4; stroke-opacity:1; fill:none" points="1995.33,545.888 2057.13,560.949 2057.13,585.814 2057.13,540.556 2057.13,495.298 2057.13,450.04 2057.13,404.782 2057.13,359.524 2057.13,314.266 2057.13,269.008 2057.13,223.75 2057.13,178.492 2057.13,133.234 2057.13,87.9763 1995.33,87.9763 1933.53,87.9763 1871.73,87.9763 1809.93,87.9763 1748.13,87.9763 1686.33,87.9763 1624.53,87.9763 1562.73,87.9763 1500.92,87.9763 1439.12,87.9763 1377.32,87.9763 1315.52,87.9763 1253.72,87.9763 1191.92,87.9763 1130.12,87.9763 1068.32,87.9763 1006.51,87.9763 944.713,87.9763 882.912,87.9763 821.111,87.9763 759.31,87.9763 697.509,87.9763 635.707,87.9763 573.906,87.9763 512.105,87.9763 450.304,87.9763 388.503,87.9763 326.701,87.9763 264.9,87.9763 203.099,87.9763 203.099,133.234 203.099,178.492 203.099,223.75 203.099,269.008 203.099,314.266 203.099,359.524 203.099,404.782 203.099,450.04 203.099,495.298 203.099,540.556 203.099,505.053 245.578,495.298 264.9,491.042 326.701,478.669 388.503,467.586 450.304,457.76 505.738,450.04 512.105,449.187 573.906,442.005 635.707,435.95 697.509,430.998 759.31,427.121 821.111,424.296 882.912,422.497 944.713,421.702 1006.51,421.887 1068.32,423.032 1130.12,425.113 1191.92,428.111 1253.72,432.005 1315.52,436.776 1377.32,442.405 1439.12,448.873 1448.96,450.04 1500.92,456.331 1562.73,464.643 1624.53,473.761 1686.33,483.666 1748.13,494.343 1753.26,495.298 1809.93,506.059 1871.73,518.555 1933.53,531.79 1972.25,540.556 1995.33,545.888 "/>
<polyline clip-path="url(#clip642)" style="stroke:#000003; stroke-linecap:round; stroke-linejoin:round; stroke-width:4; stroke-opacity:1; fill:none" points="1933.53,456.572 1995.33,470.687 2057.13,485.489 2057.13,495.298 2057.13,450.04 2057.13,404.782 2057.13,359.524 2057.13,314.266 2057.13,269.008 2057.13,223.75 2057.13,178.492 2057.13,133.234 2057.13,87.9763 1995.33,87.9763 1933.53,87.9763 1871.73,87.9763 1809.93,87.9763 1748.13,87.9763 1686.33,87.9763 1624.53,87.9763 1562.73,87.9763 1500.92,87.9763 1439.12,87.9763 1377.32,87.9763 1315.52,87.9763 1253.72,87.9763 1191.92,87.9763 1130.12,87.9763 1068.32,87.9763 1006.51,87.9763 944.713,87.9763 882.912,87.9763 821.111,87.9763 759.31,87.9763 697.509,87.9763 635.707,87.9763 573.906,87.9763 512.105,87.9763 450.304,87.9763 388.503,87.9763 326.701,87.9763 264.9,87.9763 203.099,87.9763 203.099,133.234 203.099,178.492 203.099,223.75 203.099,269.008 203.099,314.266 203.099,359.524 203.099,404.782 203.099,450.04 203.099,413.668 246.881,404.782 264.9,401.265 326.701,390.352 388.503,380.628 450.304,372.066 512.105,364.639 562.049,359.524 573.906,358.353 635.707,353.263 697.509,349.199 759.31,346.138 821.111,344.059 882.912,342.941 944.713,342.761 1006.51,343.501 1068.32,345.141 1130.12,347.661 1191.92,351.044 1253.72,355.271 1305.67,359.524 1315.52,360.346 1377.32,366.364 1439.12,373.194 1500.92,380.819 1562.73,389.222 1624.53,398.388 1664.3,404.782 1686.33,408.393 1748.13,419.313 1809.93,430.965 1871.73,443.335 1903.33,450.04 1933.53,456.572 "/>
<polyline clip-path="url(#clip642)" style="stroke:#000003; stroke-linecap:round; stroke-linejoin:round; stroke-width:4; stroke-opacity:1; fill:none" points="2057.13,413.193 2057.13,450.04 2057.13,404.782 2057.13,359.524 2057.13,314.266 2057.13,269.008 2057.13,223.75 2057.13,178.492 2057.13,133.234 2057.13,87.9763 1995.33,87.9763 1933.53,87.9763 1871.73,87.9763 1809.93,87.9763 1748.13,87.9763 1686.33,87.9763 1624.53,87.9763 1562.73,87.9763 1500.92,87.9763 1439.12,87.9763 1377.32,87.9763 1315.52,87.9763 1253.72,87.9763 1191.92,87.9763 1130.12,87.9763 1068.32,87.9763 1006.51,87.9763 944.713,87.9763 882.912,87.9763 821.111,87.9763 759.31,87.9763 697.509,87.9763 635.707,87.9763 573.906,87.9763 512.105,87.9763 450.304,87.9763 388.503,87.9763 326.701,87.9763 264.9,87.9763 203.099,87.9763 203.099,133.234 203.099,178.492 203.099,223.75 203.099,269.008 203.099,314.266 203.099,359.524 203.099,327.736 264.9,316.629 279.507,314.266 326.701,306.904 388.503,298.351 450.304,290.877 512.105,284.459 573.906,279.074 635.707,274.698 697.509,271.311 756.272,269.008 759.31,268.893 821.111,267.457 882.912,266.923 944.713,267.272 1006.51,268.487 1022.06,269.008 1068.32,270.589 1130.12,273.557 1191.92,277.358 1253.72,281.977 1315.52,287.396 1377.32,293.6 1439.12,300.573 1500.92,308.3 1544.4,314.266 1562.73,316.828 1624.53,326.248 1686.33,336.392 1748.13,347.247 1809.93,358.799 1813.57,359.524 1871.73,371.322 1933.53,384.546 1995.33,398.438 2022.18,404.782 2057.13,413.193 "/>
<polyline clip-path="url(#clip642)" style="stroke:#000003; stroke-linecap:round; stroke-linejoin:round; stroke-width:4; stroke-opacity:1; fill:none" points="1933.53,315.07 1995.33,329.074 2057.13,343.717 2057.13,359.524 2057.13,314.266 2057.13,269.008 2057.13,223.75 2057.13,178.492 2057.13,133.234 2057.13,87.9763 1995.33,87.9763 1933.53,87.9763 1871.73,87.9763 1809.93,87.9763 1748.13,87.9763 1686.33,87.9763 1624.53,87.9763 1562.73,87.9763 1500.92,87.9763 1439.12,87.9763 1377.32,87.9763 1315.52,87.9763 1253.72,87.9763 1191.92,87.9763 1130.12,87.9763 1068.32,87.9763 1006.51,87.9763 944.713,87.9763 882.912,87.9763 821.111,87.9763 759.31,87.9763 697.509,87.9763 635.707,87.9763 573.906,87.9763 512.105,87.9763 450.304,87.9763 388.503,87.9763 326.701,87.9763 264.9,87.9763 203.099,87.9763 203.099,133.234 203.099,178.492 203.099,223.75 203.099,269.008 203.099,246.344 264.9,236.454 326.701,227.65 357.712,223.75 388.503,220.009 450.304,213.481 512.105,207.94 573.906,203.365 635.707,199.737 697.509,197.037 759.31,195.244 821.111,194.342 882.912,194.312 944.713,195.136 1006.51,196.798 1068.32,199.28 1130.12,202.568 1191.92,206.645 1253.72,211.497 1315.52,217.107 1377.32,223.462 1379.82,223.75 1439.12,230.713 1500.92,238.703 1562.73,247.41 1624.53,256.822 1686.33,266.924 1698.21,269.008 1748.13,277.914 1809.93,289.633 1871.73,302.016 1929.79,314.266 1933.53,315.07 "/>
<polyline clip-path="url(#clip642)" style="stroke:#000003; stroke-linecap:round; stroke-linejoin:round; stroke-width:4; stroke-opacity:1; fill:none" points="2057.13,276.625 2057.13,314.266 2057.13,269.008 2057.13,223.75 2057.13,178.492 2057.13,133.234 2057.13,87.9763 1995.33,87.9763 1933.53,87.9763 1871.73,87.9763 1809.93,87.9763 1748.13,87.9763 1686.33,87.9763 1624.53,87.9763 1562.73,87.9763 1500.92,87.9763 1439.12,87.9763 1377.32,87.9763 1315.52,87.9763 1253.72,87.9763 1191.92,87.9763 1130.12,87.9763 1068.32,87.9763 1006.51,87.9763 944.713,87.9763 882.912,87.9763 821.111,87.9763 759.31,87.9763 697.509,87.9763 635.707,87.9763 573.906,87.9763 512.105,87.9763 450.304,87.9763 388.503,87.9763 326.701,87.9763 264.9,87.9763 203.099,87.9763 203.099,133.234 203.099,178.492 203.099,168.773 264.9,159.945 326.701,152.131 388.503,145.31 450.304,139.462 512.105,134.566 532.788,133.234 573.906,130.669 635.707,127.696 697.509,125.596 759.31,124.353 821.111,123.949 882.912,124.37 944.713,125.599 1006.51,127.62 1068.32,130.42 1117.07,133.234 1130.12,134.001 1191.92,138.415 1253.72,143.581 1315.52,149.485 1377.32,156.112 1439.12,163.45 1500.92,171.485 1550.53,178.492 1562.73,180.244 1624.53,189.854 1686.33,200.135 1748.13,211.077 1809.93,222.667 1815.37,223.75 1871.73,235.152 1933.53,248.298 1995.33,262.068 2025.06,269.008 2057.13,276.625 "/>
<polyline clip-path="url(#clip642)" style="stroke:#000003; stroke-linecap:round; stroke-linejoin:round; stroke-width:4; stroke-opacity:1; fill:none" points="1933.53,183.538 1995.33,197.386 2057.13,211.833 2057.13,223.75 2057.13,178.492 2057.13,133.234 2057.13,87.9763 1995.33,87.9763 1933.53,87.9763 1871.73,87.9763 1809.93,87.9763 1748.13,87.9763 1686.33,87.9763 1624.53,87.9763 1562.73,87.9763 1500.92,87.9763 1439.12,87.9763 1377.32,87.9763 1315.52,87.9763 1351.85,87.9763 1377.32,90.7999 1439.12,98.3657 1500.92,106.61 1562.73,115.521 1624.53,125.087 1673.78,133.234 1686.33,135.343 1748.13,146.427 1809.93,158.144 1871.73,170.48 1909.89,178.492 1933.53,183.538 "/>
<polyline clip-path="url(#clip642)" style="stroke:#000003; stroke-linecap:round; stroke-linejoin:round; stroke-width:4; stroke-opacity:1; fill:none" points="203.099,133.234 203.099,94.6128 253.695,87.9763 203.099,87.9763 203.099,133.234 "/>
<polyline clip-path="url(#clip642)" style="stroke:#000003; stroke-linecap:round; stroke-linejoin:round; stroke-width:4; stroke-opacity:1; fill:none" points="1995.33,134.55 2057.13,149.047 2057.13,178.492 2057.13,133.234 2057.13,87.9763 1995.33,87.9763 1933.53,87.9763 1871.73,87.9763 1809.93,87.9763 1748.13,87.9763 1770.79,87.9763 1809.93,95.4506 1871.73,107.882 1933.53,120.91 1989.46,133.234 1995.33,134.55 "/>
<path clip-path="url(#clip642)" d="M821.111 993.136 L1439.12 993.136 L1439.12 540.556 L821.111 540.556 L821.111 993.136  Z" fill="#e26f46" fill-rule="evenodd" fill-opacity="0.5"/>
<polyline clip-path="url(#clip642)" style="stroke:#000000; stroke-linecap:round; stroke-linejoin:round; stroke-width:4; stroke-opacity:0.5; fill:none" points="821.111,993.136 1439.12,993.136 1439.12,540.556 821.111,540.556 821.111,993.136 "/>
<path clip-path="url(#clip642)" d="M1239.18 977.136 L1235.42 987.952 L1223.96 988.192 L1233.1 995.12 L1229.77 1006.08 L1239.18 999.536 L1248.58 1006.08 L1245.26 995.12 L1254.39 988.192 L1242.94 987.952 L1239.18 977.136 Z" fill="#ff0000" fill-rule="evenodd" fill-opacity="1" stroke="#000000" stroke-opacity="1" stroke-width="3.2"/>
<defs>
  <clipPath id="clip643">
    <rect x="2160" y="47" width="73" height="1440"/>
  </clipPath>
</defs>
<path clip-path="url(#clip643)" d="M2160.76 1486.45 L2232.76 1486.45 L2232.76 1396.5 L2160.76 1396.5  Z" fill="#000003" fill-rule="evenodd" fill-opacity="1"/>
<path clip-path="url(#clip643)" d="M2160.76 1396.5 L2232.76 1396.5 L2232.76 1306.55 L2160.76 1306.55  Z" fill="#0b0726" fill-rule="evenodd" fill-opacity="1"/>
<path clip-path="url(#clip643)" d="M2160.76 1306.55 L2232.76 1306.55 L2232.76 1216.6 L2160.76 1216.6  Z" fill="#240b4e" fill-rule="evenodd" fill-opacity="1"/>
<path clip-path="url(#clip643)" d="M2160.76 1216.6 L2232.76 1216.6 L2232.76 1126.65 L2160.76 1126.65  Z" fill="#410967" fill-rule="evenodd" fill-opacity="1"/>
<path clip-path="url(#clip643)" d="M2160.76 1126.65 L2232.76 1126.65 L2232.76 1036.7 L2160.76 1036.7  Z" fill="#5d126e" fill-rule="evenodd" fill-opacity="1"/>
<path clip-path="url(#clip643)" d="M2160.76 1036.7 L2232.76 1036.7 L2232.76 946.746 L2160.76 946.746  Z" fill="#781c6d" fill-rule="evenodd" fill-opacity="1"/>
<path clip-path="url(#clip643)" d="M2160.76 946.746 L2232.76 946.746 L2232.76 856.796 L2160.76 856.796  Z" fill="#932567" fill-rule="evenodd" fill-opacity="1"/>
<path clip-path="url(#clip643)" d="M2160.76 856.796 L2232.76 856.796 L2232.76 766.846 L2160.76 766.846  Z" fill="#ae305b" fill-rule="evenodd" fill-opacity="1"/>
<path clip-path="url(#clip643)" d="M2160.76 766.846 L2232.76 766.846 L2232.76 676.896 L2160.76 676.896  Z" fill="#c73e4c" fill-rule="evenodd" fill-opacity="1"/>
<path clip-path="url(#clip643)" d="M2160.76 676.896 L2232.76 676.896 L2232.76 586.946 L2160.76 586.946  Z" fill="#dc5039" fill-rule="evenodd" fill-opacity="1"/>
<path clip-path="url(#clip643)" d="M2160.76 586.946 L2232.76 586.946 L2232.76 496.995 L2160.76 496.995  Z" fill="#ed6825" fill-rule="evenodd" fill-opacity="1"/>
<path clip-path="url(#clip643)" d="M2160.76 496.995 L2232.76 496.995 L2232.76 407.045 L2160.76 407.045  Z" fill="#f7850e" fill-rule="evenodd" fill-opacity="1"/>
<path clip-path="url(#clip643)" d="M2160.76 407.045 L2232.76 407.045 L2232.76 317.095 L2160.76 317.095  Z" fill="#fba40a" fill-rule="evenodd" fill-opacity="1"/>
<path clip-path="url(#clip643)" d="M2160.76 317.095 L2232.76 317.095 L2232.76 227.145 L2160.76 227.145  Z" fill="#f9c52c" fill-rule="evenodd" fill-opacity="1"/>
<path clip-path="url(#clip643)" d="M2160.76 227.145 L2232.76 227.145 L2232.76 137.194 L2160.76 137.194  Z" fill="#f2e660" fill-rule="evenodd" fill-opacity="1"/>
<path clip-path="url(#clip643)" d="M2160.76 137.194 L2232.76 137.194 L2232.76 47.2441 L2160.76 47.2441  Z" fill="#fcfea4" fill-rule="evenodd" fill-opacity="1"/>
<path clip-path="url(#clip640)" d="M2268.76 1341.74 L2298.43 1341.74 L2298.43 1345.67 L2268.76 1345.67 L2268.76 1341.74 Z" fill="#000000" fill-rule="nonzero" fill-opacity="1" /><path clip-path="url(#clip640)" d="M2308.57 1324 L2326.93 1324 L2326.93 1327.94 L2312.85 1327.94 L2312.85 1336.41 Q2313.87 1336.06 2314.89 1335.9 Q2315.91 1335.72 2316.93 1335.72 Q2322.71 1335.72 2326.09 1338.89 Q2329.47 1342.06 2329.47 1347.48 Q2329.47 1353.05 2326 1356.16 Q2322.53 1359.24 2316.21 1359.24 Q2314.03 1359.24 2311.76 1358.87 Q2309.52 1358.49 2307.11 1357.75 L2307.11 1353.05 Q2309.2 1354.19 2311.42 1354.74 Q2313.64 1355.3 2316.12 1355.3 Q2320.12 1355.3 2322.46 1353.19 Q2324.8 1351.09 2324.8 1347.48 Q2324.8 1343.87 2322.46 1341.76 Q2320.12 1339.65 2316.12 1339.65 Q2314.24 1339.65 2312.37 1340.07 Q2310.51 1340.49 2308.57 1341.37 L2308.57 1324 Z" fill="#000000" fill-rule="nonzero" fill-opacity="1" /><polyline clip-path="url(#clip640)" style="stroke:#000000; stroke-linecap:round; stroke-linejoin:round; stroke-width:4; stroke-opacity:1; fill:none" points="2232.76,1344.91 2256.76,1344.91 "/>
<path clip-path="url(#clip640)" d="M2280.7 1168.05 Q2277.09 1168.05 2275.26 1171.62 Q2273.45 1175.16 2273.45 1182.29 Q2273.45 1189.4 2275.26 1192.96 Q2277.09 1196.5 2280.7 1196.5 Q2284.33 1196.5 2286.14 1192.96 Q2287.97 1189.4 2287.97 1182.29 Q2287.97 1175.16 2286.14 1171.62 Q2284.33 1168.05 2280.7 1168.05 M2280.7 1164.35 Q2286.51 1164.35 2289.57 1168.96 Q2292.64 1173.54 2292.64 1182.29 Q2292.64 1191.02 2289.57 1195.62 Q2286.51 1200.21 2280.7 1200.21 Q2274.89 1200.21 2271.81 1195.62 Q2268.76 1191.02 2268.76 1182.29 Q2268.76 1173.54 2271.81 1168.96 Q2274.89 1164.35 2280.7 1164.35 Z" fill="#000000" fill-rule="nonzero" fill-opacity="1" /><polyline clip-path="url(#clip640)" style="stroke:#000000; stroke-linecap:round; stroke-linejoin:round; stroke-width:4; stroke-opacity:1; fill:none" points="2232.76,1185.88 2256.76,1185.88 "/>
<path clip-path="url(#clip640)" d="M2270.21 1005.95 L2288.57 1005.95 L2288.57 1009.88 L2274.5 1009.88 L2274.5 1018.36 Q2275.52 1018.01 2276.53 1017.85 Q2277.55 1017.66 2278.57 1017.66 Q2284.36 1017.66 2287.74 1020.83 Q2291.12 1024 2291.12 1029.42 Q2291.12 1035 2287.64 1038.1 Q2284.17 1041.18 2277.85 1041.18 Q2275.68 1041.18 2273.41 1040.81 Q2271.16 1040.44 2268.76 1039.7 L2268.76 1035 Q2270.84 1036.13 2273.06 1036.69 Q2275.28 1037.24 2277.76 1037.24 Q2281.77 1037.24 2284.1 1035.14 Q2286.44 1033.03 2286.44 1029.42 Q2286.44 1025.81 2284.1 1023.7 Q2281.77 1021.6 2277.76 1021.6 Q2275.89 1021.6 2274.01 1022.01 Q2272.16 1022.43 2270.21 1023.31 L2270.21 1005.95 Z" fill="#000000" fill-rule="nonzero" fill-opacity="1" /><polyline clip-path="url(#clip640)" style="stroke:#000000; stroke-linecap:round; stroke-linejoin:round; stroke-width:4; stroke-opacity:1; fill:none" points="2232.76,1026.86 2256.76,1026.86 "/>
<path clip-path="url(#clip640)" d="M2269.43 877.545 L2277.07 877.545 L2277.07 851.179 L2268.76 852.846 L2268.76 848.587 L2277.02 846.92 L2281.7 846.92 L2281.7 877.545 L2289.33 877.545 L2289.33 881.48 L2269.43 881.48 L2269.43 877.545 Z" fill="#000000" fill-rule="nonzero" fill-opacity="1" /><path clip-path="url(#clip640)" d="M2308.78 849.999 Q2305.17 849.999 2303.34 853.563 Q2301.53 857.105 2301.53 864.235 Q2301.53 871.341 2303.34 874.906 Q2305.17 878.448 2308.78 878.448 Q2312.41 878.448 2314.22 874.906 Q2316.05 871.341 2316.05 864.235 Q2316.05 857.105 2314.22 853.563 Q2312.41 849.999 2308.78 849.999 M2308.78 846.295 Q2314.59 846.295 2317.64 850.901 Q2320.72 855.485 2320.72 864.235 Q2320.72 872.962 2317.64 877.568 Q2314.59 882.151 2308.78 882.151 Q2302.97 882.151 2299.89 877.568 Q2296.83 872.962 2296.83 864.235 Q2296.83 855.485 2299.89 850.901 Q2302.97 846.295 2308.78 846.295 Z" fill="#000000" fill-rule="nonzero" fill-opacity="1" /><polyline clip-path="url(#clip640)" style="stroke:#000000; stroke-linecap:round; stroke-linejoin:round; stroke-width:4; stroke-opacity:1; fill:none" points="2232.76,867.829 2256.76,867.829 "/>
<path clip-path="url(#clip640)" d="M2269.43 718.517 L2277.07 718.517 L2277.07 692.151 L2268.76 693.818 L2268.76 689.559 L2277.02 687.892 L2281.7 687.892 L2281.7 718.517 L2289.33 718.517 L2289.33 722.452 L2269.43 722.452 L2269.43 718.517 Z" fill="#000000" fill-rule="nonzero" fill-opacity="1" /><path clip-path="url(#clip640)" d="M2298.83 687.892 L2317.18 687.892 L2317.18 691.827 L2303.11 691.827 L2303.11 700.299 Q2304.13 699.952 2305.14 699.79 Q2306.16 699.605 2307.18 699.605 Q2312.97 699.605 2316.35 702.776 Q2319.73 705.947 2319.73 711.364 Q2319.73 716.943 2316.26 720.045 Q2312.78 723.123 2306.46 723.123 Q2304.29 723.123 2302.02 722.753 Q2299.77 722.383 2297.37 721.642 L2297.37 716.943 Q2299.45 718.077 2301.67 718.633 Q2303.89 719.188 2306.37 719.188 Q2310.38 719.188 2312.71 717.082 Q2315.05 714.975 2315.05 711.364 Q2315.05 707.753 2312.71 705.646 Q2310.38 703.54 2306.37 703.54 Q2304.5 703.54 2302.62 703.957 Q2300.77 704.373 2298.83 705.253 L2298.83 687.892 Z" fill="#000000" fill-rule="nonzero" fill-opacity="1" /><polyline clip-path="url(#clip640)" style="stroke:#000000; stroke-linecap:round; stroke-linejoin:round; stroke-width:4; stroke-opacity:1; fill:none" points="2232.76,708.801 2256.76,708.801 "/>
<path clip-path="url(#clip640)" d="M2274.38 559.489 L2290.7 559.489 L2290.7 563.424 L2268.76 563.424 L2268.76 559.489 Q2271.42 556.734 2276 552.105 Q2280.61 547.452 2281.79 546.109 Q2284.03 543.586 2284.91 541.85 Q2285.82 540.091 2285.82 538.401 Q2285.82 535.646 2283.87 533.91 Q2281.95 532.174 2278.85 532.174 Q2276.65 532.174 2274.2 532.938 Q2271.77 533.702 2268.99 535.253 L2268.99 530.531 Q2271.81 529.396 2274.27 528.818 Q2276.72 528.239 2278.76 528.239 Q2284.13 528.239 2287.32 530.924 Q2290.52 533.609 2290.52 538.1 Q2290.52 540.23 2289.7 542.151 Q2288.92 544.049 2286.81 546.642 Q2286.23 547.313 2283.13 550.53 Q2280.03 553.725 2274.38 559.489 Z" fill="#000000" fill-rule="nonzero" fill-opacity="1" /><path clip-path="url(#clip640)" d="M2310.51 531.943 Q2306.9 531.943 2305.08 535.507 Q2303.27 539.049 2303.27 546.179 Q2303.27 553.285 2305.08 556.85 Q2306.9 560.392 2310.51 560.392 Q2314.15 560.392 2315.95 556.85 Q2317.78 553.285 2317.78 546.179 Q2317.78 539.049 2315.95 535.507 Q2314.15 531.943 2310.51 531.943 M2310.51 528.239 Q2316.33 528.239 2319.38 532.845 Q2322.46 537.429 2322.46 546.179 Q2322.46 554.905 2319.38 559.512 Q2316.33 564.095 2310.51 564.095 Q2304.7 564.095 2301.63 559.512 Q2298.57 554.905 2298.57 546.179 Q2298.57 537.429 2301.63 532.845 Q2304.7 528.239 2310.51 528.239 Z" fill="#000000" fill-rule="nonzero" fill-opacity="1" /><polyline clip-path="url(#clip640)" style="stroke:#000000; stroke-linecap:round; stroke-linejoin:round; stroke-width:4; stroke-opacity:1; fill:none" points="2232.76,549.773 2256.76,549.773 "/>
<path clip-path="url(#clip640)" d="M2274.38 400.461 L2290.7 400.461 L2290.7 404.396 L2268.76 404.396 L2268.76 400.461 Q2271.42 397.706 2276 393.076 Q2280.61 388.424 2281.79 387.081 Q2284.03 384.558 2284.91 382.822 Q2285.82 381.063 2285.82 379.373 Q2285.82 376.618 2283.87 374.882 Q2281.95 373.146 2278.85 373.146 Q2276.65 373.146 2274.2 373.91 Q2271.77 374.674 2268.99 376.225 L2268.99 371.503 Q2271.81 370.368 2274.27 369.79 Q2276.72 369.211 2278.76 369.211 Q2284.13 369.211 2287.32 371.896 Q2290.52 374.581 2290.52 379.072 Q2290.52 381.202 2289.7 383.123 Q2288.92 385.021 2286.81 387.614 Q2286.23 388.285 2283.13 391.502 Q2280.03 394.697 2274.38 400.461 Z" fill="#000000" fill-rule="nonzero" fill-opacity="1" /><path clip-path="url(#clip640)" d="M2300.56 369.836 L2318.92 369.836 L2318.92 373.771 L2304.84 373.771 L2304.84 382.243 Q2305.86 381.896 2306.88 381.734 Q2307.9 381.549 2308.92 381.549 Q2314.7 381.549 2318.08 384.72 Q2321.46 387.891 2321.46 393.308 Q2321.46 398.887 2317.99 401.988 Q2314.52 405.067 2308.2 405.067 Q2306.02 405.067 2303.76 404.697 Q2301.51 404.326 2299.1 403.586 L2299.1 398.887 Q2301.19 400.021 2303.41 400.576 Q2305.63 401.132 2308.11 401.132 Q2312.11 401.132 2314.45 399.026 Q2316.79 396.919 2316.79 393.308 Q2316.79 389.697 2314.45 387.59 Q2312.11 385.484 2308.11 385.484 Q2306.23 385.484 2304.36 385.901 Q2302.51 386.317 2300.56 387.197 L2300.56 369.836 Z" fill="#000000" fill-rule="nonzero" fill-opacity="1" /><polyline clip-path="url(#clip640)" style="stroke:#000000; stroke-linecap:round; stroke-linejoin:round; stroke-width:4; stroke-opacity:1; fill:none" points="2232.76,390.745 2256.76,390.745 "/>
<path clip-path="url(#clip640)" d="M2284.38 226.734 Q2287.74 227.451 2289.61 229.72 Q2291.51 231.988 2291.51 235.322 Q2291.51 240.437 2287.99 243.238 Q2284.47 246.039 2277.99 246.039 Q2275.82 246.039 2273.5 245.599 Q2271.21 245.183 2268.76 244.326 L2268.76 239.812 Q2270.7 240.947 2273.02 241.525 Q2275.33 242.104 2277.85 242.104 Q2282.25 242.104 2284.54 240.368 Q2286.86 238.632 2286.86 235.322 Q2286.86 232.266 2284.7 230.553 Q2282.58 228.817 2278.76 228.817 L2274.73 228.817 L2274.73 224.974 L2278.94 224.974 Q2282.39 224.974 2284.22 223.609 Q2286.05 222.22 2286.05 219.627 Q2286.05 216.965 2284.15 215.553 Q2282.27 214.118 2278.76 214.118 Q2276.83 214.118 2274.64 214.535 Q2272.44 214.951 2269.8 215.831 L2269.8 211.664 Q2272.46 210.924 2274.77 210.553 Q2277.11 210.183 2279.17 210.183 Q2284.5 210.183 2287.6 212.613 Q2290.7 215.021 2290.7 219.141 Q2290.7 222.011 2289.06 224.002 Q2287.41 225.97 2284.38 226.734 Z" fill="#000000" fill-rule="nonzero" fill-opacity="1" /><path clip-path="url(#clip640)" d="M2310.38 213.887 Q2306.76 213.887 2304.94 217.451 Q2303.13 220.993 2303.13 228.123 Q2303.13 235.229 2304.94 238.794 Q2306.76 242.335 2310.38 242.335 Q2314.01 242.335 2315.82 238.794 Q2317.64 235.229 2317.64 228.123 Q2317.64 220.993 2315.82 217.451 Q2314.01 213.887 2310.38 213.887 M2310.38 210.183 Q2316.19 210.183 2319.24 214.789 Q2322.32 219.373 2322.32 228.123 Q2322.32 236.849 2319.24 241.456 Q2316.19 246.039 2310.38 246.039 Q2304.57 246.039 2301.49 241.456 Q2298.43 236.849 2298.43 228.123 Q2298.43 219.373 2301.49 214.789 Q2304.57 210.183 2310.38 210.183 Z" fill="#000000" fill-rule="nonzero" fill-opacity="1" /><polyline clip-path="url(#clip640)" style="stroke:#000000; stroke-linecap:round; stroke-linejoin:round; stroke-width:4; stroke-opacity:1; fill:none" points="2232.76,231.717 2256.76,231.717 "/>
<path clip-path="url(#clip640)" d="M2284.38 67.7056 Q2287.74 68.4232 2289.61 70.6917 Q2291.51 72.9602 2291.51 76.2935 Q2291.51 81.4093 2287.99 84.2102 Q2284.47 87.0111 2277.99 87.0111 Q2275.82 87.0111 2273.5 86.5713 Q2271.21 86.1546 2268.76 85.2981 L2268.76 80.7843 Q2270.7 81.9185 2273.02 82.4972 Q2275.33 83.0759 2277.85 83.0759 Q2282.25 83.0759 2284.54 81.3398 Q2286.86 79.6037 2286.86 76.2935 Q2286.86 73.238 2284.7 71.525 Q2282.58 69.7889 2278.76 69.7889 L2274.73 69.7889 L2274.73 65.9464 L2278.94 65.9464 Q2282.39 65.9464 2284.22 64.5806 Q2286.05 63.1918 2286.05 60.5992 Q2286.05 57.9372 2284.15 56.5251 Q2282.27 55.0899 2278.76 55.0899 Q2276.83 55.0899 2274.64 55.5066 Q2272.44 55.9233 2269.8 56.8029 L2269.8 52.6363 Q2272.46 51.8955 2274.77 51.5252 Q2277.11 51.1548 2279.17 51.1548 Q2284.5 51.1548 2287.6 53.5853 Q2290.7 55.9927 2290.7 60.1131 Q2290.7 62.9834 2289.06 64.9742 Q2287.41 66.9417 2284.38 67.7056 Z" fill="#000000" fill-rule="nonzero" fill-opacity="1" /><path clip-path="url(#clip640)" d="M2300.42 51.7798 L2318.78 51.7798 L2318.78 55.7149 L2304.7 55.7149 L2304.7 64.1871 Q2305.72 63.8399 2306.74 63.6779 Q2307.76 63.4927 2308.78 63.4927 Q2314.57 63.4927 2317.95 66.664 Q2321.33 69.8352 2321.33 75.2519 Q2321.33 80.8306 2317.85 83.9324 Q2314.38 87.0111 2308.06 87.0111 Q2305.89 87.0111 2303.62 86.6407 Q2301.37 86.2703 2298.96 85.5296 L2298.96 80.8306 Q2301.05 81.9648 2303.27 82.5204 Q2305.49 83.0759 2307.97 83.0759 Q2311.97 83.0759 2314.31 80.9694 Q2316.65 78.863 2316.65 75.2519 Q2316.65 71.6408 2314.31 69.5343 Q2311.97 67.4278 2307.97 67.4278 Q2306.09 67.4278 2304.22 67.8445 Q2302.37 68.2612 2300.42 69.1408 L2300.42 51.7798 Z" fill="#000000" fill-rule="nonzero" fill-opacity="1" /><polyline clip-path="url(#clip640)" style="stroke:#000000; stroke-linecap:round; stroke-linejoin:round; stroke-width:4; stroke-opacity:1; fill:none" points="2232.76,72.6886 2256.76,72.6886 "/>
<polyline clip-path="url(#clip640)" style="stroke:#000000; stroke-linecap:round; stroke-linejoin:round; stroke-width:4; stroke-opacity:1; fill:none" points="2232.76,1486.45 2232.76,47.2441 "/>
<path clip-path="url(#clip640)" d="M212.987 250.738 L844.906 250.738 L844.906 95.2176 L212.987 95.2176  Z" fill="#000000" fill-rule="evenodd" fill-opacity="0"/>
<polyline clip-path="url(#clip640)" style="stroke:#000000; stroke-linecap:round; stroke-linejoin:round; stroke-width:4; stroke-opacity:1; fill:none" points="212.987,250.738 844.906,250.738 844.906,95.2176 212.987,95.2176 212.987,250.738 "/>
<path clip-path="url(#clip640)" d="M234.824 167.794 L365.842 167.794 L365.842 126.322 L234.824 126.322 L234.824 167.794  Z" fill="#e26f46" fill-rule="evenodd" fill-opacity="0.5"/>
<polyline clip-path="url(#clip640)" style="stroke:#000000; stroke-linecap:round; stroke-linejoin:round; stroke-width:4; stroke-opacity:1; fill:none" points="234.824,167.794 365.842,167.794 365.842,126.322 234.824,126.322 234.824,167.794 "/>
<path clip-path="url(#clip640)" d="M404.183 128.319 L404.183 131.861 L400.109 131.861 Q397.817 131.861 396.915 132.787 Q396.035 133.713 396.035 136.12 L396.035 138.412 L403.049 138.412 L403.049 141.722 L396.035 141.722 L396.035 164.338 L391.753 164.338 L391.753 141.722 L387.679 141.722 L387.679 138.412 L391.753 138.412 L391.753 136.606 Q391.753 132.278 393.766 130.31 Q395.78 128.319 400.155 128.319 L404.183 128.319 Z" fill="#000000" fill-rule="nonzero" fill-opacity="1" /><path clip-path="url(#clip640)" d="M429.924 150.31 L429.924 152.393 L410.34 152.393 Q410.618 156.791 412.979 159.106 Q415.364 161.398 419.6 161.398 Q422.053 161.398 424.345 160.796 Q426.66 160.194 428.928 158.99 L428.928 163.018 Q426.637 163.99 424.229 164.5 Q421.822 165.009 419.345 165.009 Q413.141 165.009 409.507 161.398 Q405.896 157.787 405.896 151.629 Q405.896 145.264 409.322 141.537 Q412.771 137.787 418.604 137.787 Q423.836 137.787 426.868 141.166 Q429.924 144.523 429.924 150.31 M425.664 149.06 Q425.618 145.565 423.697 143.481 Q421.799 141.398 418.651 141.398 Q415.086 141.398 412.933 143.412 Q410.803 145.426 410.479 149.083 L425.664 149.06 Z" fill="#000000" fill-rule="nonzero" fill-opacity="1" /><path clip-path="url(#clip640)" d="M448.697 151.305 Q443.535 151.305 441.544 152.486 Q439.553 153.666 439.553 156.514 Q439.553 158.782 441.035 160.125 Q442.539 161.444 445.109 161.444 Q448.65 161.444 450.78 158.944 Q452.933 156.421 452.933 152.254 L452.933 151.305 L448.697 151.305 M457.192 149.546 L457.192 164.338 L452.933 164.338 L452.933 160.402 Q451.475 162.763 449.299 163.898 Q447.123 165.009 443.975 165.009 Q439.993 165.009 437.632 162.787 Q435.294 160.541 435.294 156.791 Q435.294 152.416 438.211 150.194 Q441.15 147.972 446.961 147.972 L452.933 147.972 L452.933 147.555 Q452.933 144.615 450.988 143.018 Q449.067 141.398 445.572 141.398 Q443.35 141.398 441.243 141.93 Q439.137 142.463 437.192 143.527 L437.192 139.592 Q439.53 138.69 441.729 138.25 Q443.928 137.787 446.012 137.787 Q451.637 137.787 454.414 140.703 Q457.192 143.62 457.192 149.546 Z" fill="#000000" fill-rule="nonzero" fill-opacity="1" /><path clip-path="url(#clip640)" d="M482.493 139.176 L482.493 143.203 Q480.687 142.277 478.743 141.815 Q476.798 141.352 474.715 141.352 Q471.544 141.352 469.947 142.324 Q468.373 143.296 468.373 145.24 Q468.373 146.722 469.507 147.578 Q470.641 148.412 474.067 149.176 L475.525 149.5 Q480.062 150.472 481.96 152.254 Q483.882 154.014 483.882 157.185 Q483.882 160.796 481.011 162.902 Q478.164 165.009 473.164 165.009 Q471.081 165.009 468.812 164.592 Q466.567 164.199 464.067 163.388 L464.067 158.99 Q466.428 160.217 468.72 160.842 Q471.011 161.444 473.257 161.444 Q476.266 161.444 477.886 160.426 Q479.507 159.384 479.507 157.509 Q479.507 155.773 478.326 154.847 Q477.169 153.921 473.211 153.064 L471.729 152.717 Q467.771 151.884 466.011 150.171 Q464.252 148.435 464.252 145.426 Q464.252 141.768 466.845 139.778 Q469.437 137.787 474.206 137.787 Q476.567 137.787 478.65 138.134 Q480.734 138.481 482.493 139.176 Z" fill="#000000" fill-rule="nonzero" fill-opacity="1" /><path clip-path="url(#clip640)" d="M490.664 138.412 L494.923 138.412 L494.923 164.338 L490.664 164.338 L490.664 138.412 M490.664 128.319 L494.923 128.319 L494.923 133.713 L490.664 133.713 L490.664 128.319 Z" fill="#000000" fill-rule="nonzero" fill-opacity="1" /><path clip-path="url(#clip640)" d="M522.446 151.398 Q522.446 146.699 520.502 144.037 Q518.581 141.352 515.201 141.352 Q511.821 141.352 509.877 144.037 Q507.956 146.699 507.956 151.398 Q507.956 156.097 509.877 158.782 Q511.821 161.444 515.201 161.444 Q518.581 161.444 520.502 158.782 Q522.446 156.097 522.446 151.398 M507.956 142.347 Q509.298 140.032 511.335 138.921 Q513.395 137.787 516.243 137.787 Q520.965 137.787 523.905 141.537 Q526.868 145.287 526.868 151.398 Q526.868 157.509 523.905 161.259 Q520.965 165.009 516.243 165.009 Q513.395 165.009 511.335 163.898 Q509.298 162.763 507.956 160.449 L507.956 164.338 L503.673 164.338 L503.673 128.319 L507.956 128.319 L507.956 142.347 Z" fill="#000000" fill-rule="nonzero" fill-opacity="1" /><path clip-path="url(#clip640)" d="M533.928 128.319 L538.187 128.319 L538.187 164.338 L533.928 164.338 L533.928 128.319 Z" fill="#000000" fill-rule="nonzero" fill-opacity="1" /><path clip-path="url(#clip640)" d="M569.275 150.31 L569.275 152.393 L549.692 152.393 Q549.969 156.791 552.33 159.106 Q554.715 161.398 558.951 161.398 Q561.404 161.398 563.696 160.796 Q566.011 160.194 568.279 158.99 L568.279 163.018 Q565.988 163.99 563.58 164.5 Q561.173 165.009 558.696 165.009 Q552.492 165.009 548.858 161.398 Q545.247 157.787 545.247 151.629 Q545.247 145.264 548.673 141.537 Q552.122 137.787 557.955 137.787 Q563.187 137.787 566.219 141.166 Q569.275 144.523 569.275 150.31 M565.016 149.06 Q564.969 145.565 563.048 143.481 Q561.15 141.398 558.002 141.398 Q554.437 141.398 552.284 143.412 Q550.155 145.426 549.83 149.083 L565.016 149.06 Z" fill="#000000" fill-rule="nonzero" fill-opacity="1" /><path clip-path="url(#clip640)" d="M607.863 139.176 L607.863 143.203 Q606.057 142.277 604.113 141.815 Q602.168 141.352 600.085 141.352 Q596.914 141.352 595.316 142.324 Q593.742 143.296 593.742 145.24 Q593.742 146.722 594.877 147.578 Q596.011 148.412 599.437 149.176 L600.895 149.5 Q605.432 150.472 607.33 152.254 Q609.251 154.014 609.251 157.185 Q609.251 160.796 606.381 162.902 Q603.534 165.009 598.534 165.009 Q596.451 165.009 594.182 164.592 Q591.937 164.199 589.437 163.388 L589.437 158.99 Q591.798 160.217 594.089 160.842 Q596.381 161.444 598.627 161.444 Q601.636 161.444 603.256 160.426 Q604.876 159.384 604.876 157.509 Q604.876 155.773 603.696 154.847 Q602.539 153.921 598.58 153.064 L597.099 152.717 Q593.14 151.884 591.381 150.171 Q589.622 148.435 589.622 145.426 Q589.622 141.768 592.214 139.778 Q594.807 137.787 599.576 137.787 Q601.937 137.787 604.02 138.134 Q606.103 138.481 607.863 139.176 Z" fill="#000000" fill-rule="nonzero" fill-opacity="1" /><path clip-path="url(#clip640)" d="M638.21 150.31 L638.21 152.393 L618.626 152.393 Q618.904 156.791 621.265 159.106 Q623.65 161.398 627.886 161.398 Q630.339 161.398 632.631 160.796 Q634.946 160.194 637.214 158.99 L637.214 163.018 Q634.923 163.99 632.515 164.5 Q630.108 165.009 627.631 165.009 Q621.427 165.009 617.793 161.398 Q614.182 157.787 614.182 151.629 Q614.182 145.264 617.608 141.537 Q621.057 137.787 626.89 137.787 Q632.122 137.787 635.154 141.166 Q638.21 144.523 638.21 150.31 M633.95 149.06 Q633.904 145.565 631.983 143.481 Q630.085 141.398 626.937 141.398 Q623.372 141.398 621.219 143.412 Q619.089 145.426 618.765 149.083 L633.95 149.06 Z" fill="#000000" fill-rule="nonzero" fill-opacity="1" /><path clip-path="url(#clip640)" d="M649.413 131.051 L649.413 138.412 L658.186 138.412 L658.186 141.722 L649.413 141.722 L649.413 155.796 Q649.413 158.967 650.27 159.87 Q651.149 160.773 653.811 160.773 L658.186 160.773 L658.186 164.338 L653.811 164.338 Q648.881 164.338 647.006 162.509 Q645.131 160.657 645.131 155.796 L645.131 141.722 L642.006 141.722 L642.006 138.412 L645.131 138.412 L645.131 131.051 L649.413 131.051 Z" fill="#000000" fill-rule="nonzero" fill-opacity="1" /><path clip-path="url(#clip640)" d="M300.333 176.142 L294.985 191.525 L278.692 191.866 L291.686 201.719 L286.953 217.307 L300.333 208 L313.713 217.307 L308.98 201.719 L321.973 191.866 L305.68 191.525 L300.333 176.142 Z" fill="#ff0000" fill-rule="evenodd" fill-opacity="1" stroke="#000000" stroke-opacity="1" stroke-width="4.55111"/>
<path clip-path="url(#clip640)" d="M408.188 191.247 L408.188 195.229 Q406.382 194.233 404.553 193.747 Q402.748 193.238 400.896 193.238 Q396.753 193.238 394.461 195.877 Q392.169 198.492 392.169 203.238 Q392.169 207.983 394.461 210.622 Q396.753 213.238 400.896 213.238 Q402.748 213.238 404.553 212.752 Q406.382 212.242 408.188 211.247 L408.188 215.182 Q406.405 216.016 404.484 216.432 Q402.586 216.849 400.433 216.849 Q394.577 216.849 391.128 213.168 Q387.679 209.488 387.679 203.238 Q387.679 196.895 391.151 193.261 Q394.646 189.627 400.711 189.627 Q402.678 189.627 404.553 190.043 Q406.428 190.437 408.188 191.247 Z" fill="#000000" fill-rule="nonzero" fill-opacity="1" /><path clip-path="url(#clip640)" d="M425.641 193.238 Q422.215 193.238 420.225 195.923 Q418.234 198.585 418.234 203.238 Q418.234 207.891 420.202 210.576 Q422.192 213.238 425.641 213.238 Q429.044 213.238 431.035 210.553 Q433.026 207.867 433.026 203.238 Q433.026 198.631 431.035 195.946 Q429.044 193.238 425.641 193.238 M425.641 189.627 Q431.197 189.627 434.368 193.238 Q437.539 196.849 437.539 203.238 Q437.539 209.604 434.368 213.238 Q431.197 216.849 425.641 216.849 Q420.063 216.849 416.891 213.238 Q413.743 209.604 413.743 203.238 Q413.743 196.849 416.891 193.238 Q420.063 189.627 425.641 189.627 Z" fill="#000000" fill-rule="nonzero" fill-opacity="1" /><path clip-path="url(#clip640)" d="M464.785 195.229 Q466.382 192.358 468.604 190.993 Q470.826 189.627 473.836 189.627 Q477.886 189.627 480.085 192.474 Q482.285 195.298 482.285 200.529 L482.285 216.178 L478.002 216.178 L478.002 200.668 Q478.002 196.942 476.683 195.136 Q475.363 193.33 472.655 193.33 Q469.345 193.33 467.423 195.53 Q465.502 197.729 465.502 201.525 L465.502 216.178 L461.22 216.178 L461.22 200.668 Q461.22 196.918 459.9 195.136 Q458.581 193.33 455.826 193.33 Q452.562 193.33 450.641 195.553 Q448.72 197.752 448.72 201.525 L448.72 216.178 L444.438 216.178 L444.438 190.252 L448.72 190.252 L448.72 194.28 Q450.178 191.895 452.215 190.761 Q454.252 189.627 457.053 189.627 Q459.877 189.627 461.845 191.062 Q463.836 192.497 464.785 195.229 Z" fill="#000000" fill-rule="nonzero" fill-opacity="1" /><path clip-path="url(#clip640)" d="M494.9 212.289 L494.9 226.039 L490.618 226.039 L490.618 190.252 L494.9 190.252 L494.9 194.187 Q496.243 191.872 498.28 190.761 Q500.34 189.627 503.187 189.627 Q507.909 189.627 510.849 193.377 Q513.812 197.127 513.812 203.238 Q513.812 209.349 510.849 213.099 Q507.909 216.849 503.187 216.849 Q500.34 216.849 498.28 215.738 Q496.243 214.603 494.9 212.289 M509.391 203.238 Q509.391 198.539 507.446 195.877 Q505.525 193.192 502.146 193.192 Q498.766 193.192 496.821 195.877 Q494.9 198.539 494.9 203.238 Q494.9 207.937 496.821 210.622 Q498.766 213.284 502.146 213.284 Q505.525 213.284 507.446 210.622 Q509.391 207.937 509.391 203.238 Z" fill="#000000" fill-rule="nonzero" fill-opacity="1" /><path clip-path="url(#clip640)" d="M520.432 205.946 L520.432 190.252 L524.692 190.252 L524.692 205.784 Q524.692 209.465 526.127 211.316 Q527.562 213.145 530.432 213.145 Q533.881 213.145 535.872 210.946 Q537.886 208.747 537.886 204.951 L537.886 190.252 L542.145 190.252 L542.145 216.178 L537.886 216.178 L537.886 212.196 Q536.335 214.557 534.275 215.715 Q532.238 216.849 529.53 216.849 Q525.062 216.849 522.747 214.071 Q520.432 211.293 520.432 205.946 M531.15 189.627 L531.15 189.627 Z" fill="#000000" fill-rule="nonzero" fill-opacity="1" /><path clip-path="url(#clip640)" d="M555.131 182.891 L555.131 190.252 L563.904 190.252 L563.904 193.562 L555.131 193.562 L555.131 207.636 Q555.131 210.807 555.988 211.71 Q556.867 212.613 559.529 212.613 L563.904 212.613 L563.904 216.178 L559.529 216.178 Q554.599 216.178 552.724 214.349 Q550.849 212.497 550.849 207.636 L550.849 193.562 L547.724 193.562 L547.724 190.252 L550.849 190.252 L550.849 182.891 L555.131 182.891 Z" fill="#000000" fill-rule="nonzero" fill-opacity="1" /><path clip-path="url(#clip640)" d="M591.682 202.15 L591.682 204.233 L572.099 204.233 Q572.377 208.631 574.738 210.946 Q577.122 213.238 581.358 213.238 Q583.812 213.238 586.103 212.636 Q588.418 212.034 590.687 210.83 L590.687 214.858 Q588.395 215.83 585.988 216.34 Q583.58 216.849 581.103 216.849 Q574.9 216.849 571.266 213.238 Q567.654 209.627 567.654 203.469 Q567.654 197.104 571.08 193.377 Q574.529 189.627 580.363 189.627 Q585.594 189.627 588.627 193.006 Q591.682 196.363 591.682 202.15 M587.423 200.9 Q587.377 197.405 585.455 195.321 Q583.557 193.238 580.409 193.238 Q576.844 193.238 574.691 195.252 Q572.562 197.266 572.238 200.923 L587.423 200.9 Z" fill="#000000" fill-rule="nonzero" fill-opacity="1" /><path clip-path="url(#clip640)" d="M615.733 194.187 L615.733 180.159 L619.992 180.159 L619.992 216.178 L615.733 216.178 L615.733 212.289 Q614.39 214.603 612.33 215.738 Q610.293 216.849 607.423 216.849 Q602.724 216.849 599.761 213.099 Q596.821 209.349 596.821 203.238 Q596.821 197.127 599.761 193.377 Q602.724 189.627 607.423 189.627 Q610.293 189.627 612.33 190.761 Q614.39 191.872 615.733 194.187 M601.219 203.238 Q601.219 207.937 603.14 210.622 Q605.085 213.284 608.464 213.284 Q611.844 213.284 613.788 210.622 Q615.733 207.937 615.733 203.238 Q615.733 198.539 613.788 195.877 Q611.844 193.192 608.464 193.192 Q605.085 193.192 603.14 195.877 Q601.219 198.539 601.219 203.238 Z" fill="#000000" fill-rule="nonzero" fill-opacity="1" /><path clip-path="url(#clip640)" d="M660.362 191.016 L660.362 195.043 Q658.557 194.117 656.612 193.655 Q654.668 193.192 652.585 193.192 Q649.413 193.192 647.816 194.164 Q646.242 195.136 646.242 197.08 Q646.242 198.562 647.376 199.418 Q648.51 200.252 651.936 201.016 L653.395 201.34 Q657.932 202.312 659.83 204.094 Q661.751 205.854 661.751 209.025 Q661.751 212.636 658.881 214.742 Q656.034 216.849 651.034 216.849 Q648.95 216.849 646.682 216.432 Q644.436 216.039 641.936 215.228 L641.936 210.83 Q644.298 212.057 646.589 212.682 Q648.881 213.284 651.126 213.284 Q654.135 213.284 655.756 212.266 Q657.376 211.224 657.376 209.349 Q657.376 207.613 656.196 206.687 Q655.038 205.761 651.08 204.904 L649.598 204.557 Q645.64 203.724 643.881 202.011 Q642.122 200.275 642.122 197.266 Q642.122 193.608 644.714 191.618 Q647.307 189.627 652.075 189.627 Q654.436 189.627 656.52 189.974 Q658.603 190.321 660.362 191.016 Z" fill="#000000" fill-rule="nonzero" fill-opacity="1" /><path clip-path="url(#clip640)" d="M678.58 193.238 Q675.154 193.238 673.163 195.923 Q671.172 198.585 671.172 203.238 Q671.172 207.891 673.14 210.576 Q675.131 213.238 678.58 213.238 Q681.983 213.238 683.973 210.553 Q685.964 207.867 685.964 203.238 Q685.964 198.631 683.973 195.946 Q681.983 193.238 678.58 193.238 M678.58 189.627 Q684.135 189.627 687.307 193.238 Q690.478 196.849 690.478 203.238 Q690.478 209.604 687.307 213.238 Q684.135 216.849 678.58 216.849 Q673.001 216.849 669.83 213.238 Q666.682 209.604 666.682 203.238 Q666.682 196.849 669.83 193.238 Q673.001 189.627 678.58 189.627 Z" fill="#000000" fill-rule="nonzero" fill-opacity="1" /><path clip-path="url(#clip640)" d="M697.538 180.159 L701.797 180.159 L701.797 216.178 L697.538 216.178 L697.538 180.159 Z" fill="#000000" fill-rule="nonzero" fill-opacity="1" /><path clip-path="url(#clip640)" d="M710.269 205.946 L710.269 190.252 L714.529 190.252 L714.529 205.784 Q714.529 209.465 715.964 211.316 Q717.399 213.145 720.269 213.145 Q723.718 213.145 725.709 210.946 Q727.723 208.747 727.723 204.951 L727.723 190.252 L731.982 190.252 L731.982 216.178 L727.723 216.178 L727.723 212.196 Q726.172 214.557 724.112 215.715 Q722.075 216.849 719.367 216.849 Q714.899 216.849 712.584 214.071 Q710.269 211.293 710.269 205.946 M720.987 189.627 L720.987 189.627 Z" fill="#000000" fill-rule="nonzero" fill-opacity="1" /><path clip-path="url(#clip640)" d="M744.968 182.891 L744.968 190.252 L753.741 190.252 L753.741 193.562 L744.968 193.562 L744.968 207.636 Q744.968 210.807 745.825 211.71 Q746.704 212.613 749.366 212.613 L753.741 212.613 L753.741 216.178 L749.366 216.178 Q744.436 216.178 742.561 214.349 Q740.686 212.497 740.686 207.636 L740.686 193.562 L737.561 193.562 L737.561 190.252 L740.686 190.252 L740.686 182.891 L744.968 182.891 Z" fill="#000000" fill-rule="nonzero" fill-opacity="1" /><path clip-path="url(#clip640)" d="M759.343 190.252 L763.602 190.252 L763.602 216.178 L759.343 216.178 L759.343 190.252 M759.343 180.159 L763.602 180.159 L763.602 185.553 L759.343 185.553 L759.343 180.159 Z" fill="#000000" fill-rule="nonzero" fill-opacity="1" /><path clip-path="url(#clip640)" d="M782.561 193.238 Q779.135 193.238 777.144 195.923 Q775.153 198.585 775.153 203.238 Q775.153 207.891 777.121 210.576 Q779.112 213.238 782.561 213.238 Q785.963 213.238 787.954 210.553 Q789.945 207.867 789.945 203.238 Q789.945 198.631 787.954 195.946 Q785.963 193.238 782.561 193.238 M782.561 189.627 Q788.116 189.627 791.288 193.238 Q794.459 196.849 794.459 203.238 Q794.459 209.604 791.288 213.238 Q788.116 216.849 782.561 216.849 Q776.982 216.849 773.811 213.238 Q770.663 209.604 770.663 203.238 Q770.663 196.849 773.811 193.238 Q776.982 189.627 782.561 189.627 Z" fill="#000000" fill-rule="nonzero" fill-opacity="1" /><path clip-path="url(#clip640)" d="M823.07 200.529 L823.07 216.178 L818.811 216.178 L818.811 200.668 Q818.811 196.988 817.375 195.159 Q815.94 193.33 813.07 193.33 Q809.621 193.33 807.63 195.53 Q805.639 197.729 805.639 201.525 L805.639 216.178 L801.357 216.178 L801.357 190.252 L805.639 190.252 L805.639 194.28 Q807.167 191.942 809.227 190.784 Q811.311 189.627 814.019 189.627 Q818.486 189.627 820.778 192.405 Q823.07 195.159 823.07 200.529 Z" fill="#000000" fill-rule="nonzero" fill-opacity="1" /></svg>
